<mxfile host="app.diagrams.net" modified="2023-01-06T13:00:05.795Z" agent="5.0 (X11; Ubuntu)" etag="DYxFX__akmWjupAX9GPx" version="20.7.4" type="github" pages="4">
  <diagram id="nVJlMUDEPwe4vzKLMH_6" name="class diagram">
    <mxGraphModel dx="2261" dy="757" grid="1" gridSize="10" guides="1" tooltips="1" connect="1" arrows="1" fold="1" page="1" pageScale="1" pageWidth="827" pageHeight="1169" math="0" shadow="0">
      <root>
        <mxCell id="0" />
        <mxCell id="1" parent="0" />
        <mxCell id="Qx4rC9yRn6OZIbZmV-vm-1" value="Person" style="swimlane;fontStyle=1;align=center;verticalAlign=top;childLayout=stackLayout;horizontal=1;startSize=26;horizontalStack=0;resizeParent=1;resizeParentMax=0;resizeLast=0;collapsible=1;marginBottom=0;" parent="1" vertex="1">
          <mxGeometry x="120" y="70" width="160" height="130" as="geometry" />
        </mxCell>
        <mxCell id="Qx4rC9yRn6OZIbZmV-vm-2" value="- name: String" style="text;strokeColor=none;fillColor=none;align=left;verticalAlign=top;spacingLeft=4;spacingRight=4;overflow=hidden;rotatable=0;points=[[0,0.5],[1,0.5]];portConstraint=eastwest;" parent="Qx4rC9yRn6OZIbZmV-vm-1" vertex="1">
          <mxGeometry y="26" width="160" height="26" as="geometry" />
        </mxCell>
        <mxCell id="si1_aMFaE8ZHrP522x67-1" value="- surname: String" style="text;strokeColor=none;fillColor=none;align=left;verticalAlign=top;spacingLeft=4;spacingRight=4;overflow=hidden;rotatable=0;points=[[0,0.5],[1,0.5]];portConstraint=eastwest;" parent="Qx4rC9yRn6OZIbZmV-vm-1" vertex="1">
          <mxGeometry y="52" width="160" height="26" as="geometry" />
        </mxCell>
        <mxCell id="si1_aMFaE8ZHrP522x67-2" value="- dob: DateTime" style="text;strokeColor=none;fillColor=none;align=left;verticalAlign=top;spacingLeft=4;spacingRight=4;overflow=hidden;rotatable=0;points=[[0,0.5],[1,0.5]];portConstraint=eastwest;" parent="Qx4rC9yRn6OZIbZmV-vm-1" vertex="1">
          <mxGeometry y="78" width="160" height="26" as="geometry" />
        </mxCell>
        <mxCell id="si1_aMFaE8ZHrP522x67-3" value="- contactNo: String" style="text;strokeColor=none;fillColor=none;align=left;verticalAlign=top;spacingLeft=4;spacingRight=4;overflow=hidden;rotatable=0;points=[[0,0.5],[1,0.5]];portConstraint=eastwest;" parent="Qx4rC9yRn6OZIbZmV-vm-1" vertex="1">
          <mxGeometry y="104" width="160" height="26" as="geometry" />
        </mxCell>
        <mxCell id="Qx4rC9yRn6OZIbZmV-vm-5" value="Doctor" style="swimlane;fontStyle=1;align=center;verticalAlign=top;childLayout=stackLayout;horizontal=1;startSize=26;horizontalStack=0;resizeParent=1;resizeParentMax=0;resizeLast=0;collapsible=1;marginBottom=0;" parent="1" vertex="1">
          <mxGeometry x="20" y="374" width="260" height="156" as="geometry" />
        </mxCell>
        <mxCell id="Qx4rC9yRn6OZIbZmV-vm-6" value="- medLicenceNo: String" style="text;strokeColor=none;fillColor=none;align=left;verticalAlign=top;spacingLeft=4;spacingRight=4;overflow=hidden;rotatable=0;points=[[0,0.5],[1,0.5]];portConstraint=eastwest;" parent="Qx4rC9yRn6OZIbZmV-vm-5" vertex="1">
          <mxGeometry y="26" width="260" height="26" as="geometry" />
        </mxCell>
        <mxCell id="Qx4rC9yRn6OZIbZmV-vm-8" value="- specialisation: String" style="text;strokeColor=none;fillColor=none;align=left;verticalAlign=top;spacingLeft=4;spacingRight=4;overflow=hidden;rotatable=0;points=[[0,0.5],[1,0.5]];portConstraint=eastwest;" parent="Qx4rC9yRn6OZIbZmV-vm-5" vertex="1">
          <mxGeometry y="52" width="260" height="26" as="geometry" />
        </mxCell>
        <mxCell id="vrQBTWX8RY0tgM8DFvfD-11" value="- consultations: Consultation[]" style="text;strokeColor=none;fillColor=none;align=left;verticalAlign=top;spacingLeft=4;spacingRight=4;overflow=hidden;rotatable=0;points=[[0,0.5],[1,0.5]];portConstraint=eastwest;" parent="Qx4rC9yRn6OZIbZmV-vm-5" vertex="1">
          <mxGeometry y="78" width="260" height="26" as="geometry" />
        </mxCell>
        <mxCell id="vrQBTWX8RY0tgM8DFvfD-12" value="- patientsPerDay: int" style="text;strokeColor=none;fillColor=none;align=left;verticalAlign=top;spacingLeft=4;spacingRight=4;overflow=hidden;rotatable=0;points=[[0,0.5],[1,0.5]];portConstraint=eastwest;" parent="Qx4rC9yRn6OZIbZmV-vm-5" vertex="1">
          <mxGeometry y="104" width="260" height="26" as="geometry" />
        </mxCell>
        <mxCell id="vrQBTWX8RY0tgM8DFvfD-13" value="- unAvailableDays: ArrayList&lt;LocalDateTime&gt;" style="text;strokeColor=none;fillColor=none;align=left;verticalAlign=top;spacingLeft=4;spacingRight=4;overflow=hidden;rotatable=0;points=[[0,0.5],[1,0.5]];portConstraint=eastwest;" parent="Qx4rC9yRn6OZIbZmV-vm-5" vertex="1">
          <mxGeometry y="130" width="260" height="26" as="geometry" />
        </mxCell>
        <mxCell id="Qx4rC9yRn6OZIbZmV-vm-9" value="Patient" style="swimlane;fontStyle=1;align=center;verticalAlign=top;childLayout=stackLayout;horizontal=1;startSize=26;horizontalStack=0;resizeParent=1;resizeParentMax=0;resizeLast=0;collapsible=1;marginBottom=0;" parent="1" vertex="1">
          <mxGeometry x="320" y="374" width="160" height="52" as="geometry" />
        </mxCell>
        <mxCell id="Qx4rC9yRn6OZIbZmV-vm-10" value="- uid: String" style="text;strokeColor=none;fillColor=none;align=left;verticalAlign=top;spacingLeft=4;spacingRight=4;overflow=hidden;rotatable=0;points=[[0,0.5],[1,0.5]];portConstraint=eastwest;" parent="Qx4rC9yRn6OZIbZmV-vm-9" vertex="1">
          <mxGeometry y="26" width="160" height="26" as="geometry" />
        </mxCell>
        <mxCell id="Qx4rC9yRn6OZIbZmV-vm-17" value="Consultation" style="swimlane;fontStyle=1;align=center;verticalAlign=top;childLayout=stackLayout;horizontal=1;startSize=20;horizontalStack=0;resizeParent=1;resizeParentMax=0;resizeLast=0;collapsible=1;marginBottom=0;" parent="1" vertex="1">
          <mxGeometry x="140" y="690" width="160" height="150" as="geometry" />
        </mxCell>
        <mxCell id="Qx4rC9yRn6OZIbZmV-vm-18" value="- dateTime: DateTime" style="text;strokeColor=none;fillColor=none;align=left;verticalAlign=top;spacingLeft=4;spacingRight=4;overflow=hidden;rotatable=0;points=[[0,0.5],[1,0.5]];portConstraint=eastwest;" parent="Qx4rC9yRn6OZIbZmV-vm-17" vertex="1">
          <mxGeometry y="20" width="160" height="26" as="geometry" />
        </mxCell>
        <mxCell id="si1_aMFaE8ZHrP522x67-4" value="- cost: float" style="text;strokeColor=none;fillColor=none;align=left;verticalAlign=top;spacingLeft=4;spacingRight=4;overflow=hidden;rotatable=0;points=[[0,0.5],[1,0.5]];portConstraint=eastwest;" parent="Qx4rC9yRn6OZIbZmV-vm-17" vertex="1">
          <mxGeometry y="46" width="160" height="26" as="geometry" />
        </mxCell>
        <mxCell id="si1_aMFaE8ZHrP522x67-5" value="- notes: String" style="text;strokeColor=none;fillColor=none;align=left;verticalAlign=top;spacingLeft=4;spacingRight=4;overflow=hidden;rotatable=0;points=[[0,0.5],[1,0.5]];portConstraint=eastwest;" parent="Qx4rC9yRn6OZIbZmV-vm-17" vertex="1">
          <mxGeometry y="72" width="160" height="26" as="geometry" />
        </mxCell>
        <mxCell id="vrQBTWX8RY0tgM8DFvfD-9" value="- patient: Patient" style="text;strokeColor=none;fillColor=none;align=left;verticalAlign=top;spacingLeft=4;spacingRight=4;overflow=hidden;rotatable=0;points=[[0,0.5],[1,0.5]];portConstraint=eastwest;" parent="Qx4rC9yRn6OZIbZmV-vm-17" vertex="1">
          <mxGeometry y="98" width="160" height="26" as="geometry" />
        </mxCell>
        <mxCell id="vrQBTWX8RY0tgM8DFvfD-10" value="- doctor: Doctor" style="text;strokeColor=none;fillColor=none;align=left;verticalAlign=top;spacingLeft=4;spacingRight=4;overflow=hidden;rotatable=0;points=[[0,0.5],[1,0.5]];portConstraint=eastwest;" parent="Qx4rC9yRn6OZIbZmV-vm-17" vertex="1">
          <mxGeometry y="124" width="160" height="26" as="geometry" />
        </mxCell>
        <mxCell id="si1_aMFaE8ZHrP522x67-6" value="main.WestminsterSkinConsultationManager" style="swimlane;fontStyle=1;childLayout=stackLayout;horizontal=1;startSize=26;fillColor=none;horizontalStack=0;resizeParent=1;resizeParentMax=0;resizeLast=0;collapsible=1;marginBottom=0;" parent="1" vertex="1">
          <mxGeometry x="-490" y="410" width="270" height="78" as="geometry" />
        </mxCell>
        <mxCell id="si1_aMFaE8ZHrP522x67-7" value="- doctors: Doctors[10]" style="text;strokeColor=none;fillColor=none;align=left;verticalAlign=top;spacingLeft=4;spacingRight=4;overflow=hidden;rotatable=0;points=[[0,0.5],[1,0.5]];portConstraint=eastwest;" parent="si1_aMFaE8ZHrP522x67-6" vertex="1">
          <mxGeometry y="26" width="270" height="26" as="geometry" />
        </mxCell>
        <mxCell id="e3ONbIN_NZxVvGXWSOGe-8" value="- consultations: ArrayList&lt;Consultation&gt;" style="text;strokeColor=none;fillColor=none;align=left;verticalAlign=top;spacingLeft=4;spacingRight=4;overflow=hidden;rotatable=0;points=[[0,0.5],[1,0.5]];portConstraint=eastwest;" parent="si1_aMFaE8ZHrP522x67-6" vertex="1">
          <mxGeometry y="52" width="270" height="26" as="geometry" />
        </mxCell>
        <mxCell id="si1_aMFaE8ZHrP522x67-13" value="&lt;p style=&quot;margin:0px;margin-top:4px;text-align:center;&quot;&gt;&lt;i&gt;&amp;lt;&amp;lt;Interface&amp;gt;&amp;gt;&lt;/i&gt;&lt;br&gt;&lt;b&gt;main.SkinConsultationManager&lt;/b&gt;&lt;/p&gt;&lt;hr size=&quot;1&quot;&gt;&lt;p style=&quot;margin:0px;margin-left:4px;&quot;&gt;+ getAvailability(Doctor d, DateTime dt): boolean&lt;/p&gt;&lt;p style=&quot;margin:0px;margin-left:4px;&quot;&gt;+ addConsultation(Doctor d, DateTime dt): void&lt;/p&gt;&lt;p style=&quot;margin:0px;margin-left:4px;&quot;&gt;+ updateConsultation(String patient uid): void&lt;/p&gt;&lt;p style=&quot;margin:0px;margin-left:4px;&quot;&gt;+ cancelConsultation(String patientUid): void&lt;/p&gt;&lt;p style=&quot;margin:0px;margin-left:4px;&quot;&gt;+ addDoctor(Doctor d): void&lt;/p&gt;&lt;p style=&quot;margin:0px;margin-left:4px;&quot;&gt;+ updateDoctor(Doctor d): void&lt;/p&gt;&lt;p style=&quot;margin:0px;margin-left:4px;&quot;&gt;+ deleteDoctor(Doctor d): void&lt;/p&gt;&lt;p style=&quot;margin:0px;margin-left:4px;&quot;&gt;&lt;br&gt;&lt;/p&gt;" style="verticalAlign=top;align=left;overflow=fill;fontSize=12;fontFamily=Helvetica;html=1;" parent="1" vertex="1">
          <mxGeometry x="-490" y="120" width="270" height="150" as="geometry" />
        </mxCell>
        <mxCell id="e3ONbIN_NZxVvGXWSOGe-1" value="Extends" style="endArrow=block;endSize=16;endFill=0;html=1;rounded=0;exitX=0.5;exitY=0;exitDx=0;exitDy=0;entryX=0.106;entryY=1.154;entryDx=0;entryDy=0;entryPerimeter=0;" parent="1" source="Qx4rC9yRn6OZIbZmV-vm-5" target="si1_aMFaE8ZHrP522x67-3" edge="1">
          <mxGeometry width="160" relative="1" as="geometry">
            <mxPoint x="70" y="140" as="sourcePoint" />
            <mxPoint x="60" y="187" as="targetPoint" />
            <Array as="points">
              <mxPoint x="150" y="320" />
              <mxPoint x="140" y="320" />
            </Array>
          </mxGeometry>
        </mxCell>
        <mxCell id="e3ONbIN_NZxVvGXWSOGe-2" value="Extends" style="endArrow=block;endSize=16;endFill=0;html=1;rounded=0;entryX=0.863;entryY=1.154;entryDx=0;entryDy=0;entryPerimeter=0;exitX=0.5;exitY=0;exitDx=0;exitDy=0;" parent="1" source="Qx4rC9yRn6OZIbZmV-vm-9" target="si1_aMFaE8ZHrP522x67-3" edge="1">
          <mxGeometry width="160" relative="1" as="geometry">
            <mxPoint x="490" y="310" as="sourcePoint" />
            <mxPoint x="110" y="384" as="targetPoint" />
            <Array as="points">
              <mxPoint x="400" y="320" />
              <mxPoint x="260" y="320" />
            </Array>
          </mxGeometry>
        </mxCell>
        <mxCell id="e3ONbIN_NZxVvGXWSOGe-4" value="" style="endArrow=diamondThin;endFill=1;endSize=24;html=1;rounded=0;exitX=0.75;exitY=0;exitDx=0;exitDy=0;entryX=0.5;entryY=1.154;entryDx=0;entryDy=0;entryPerimeter=0;" parent="1" source="Qx4rC9yRn6OZIbZmV-vm-17" target="Qx4rC9yRn6OZIbZmV-vm-10" edge="1">
          <mxGeometry width="160" relative="1" as="geometry">
            <mxPoint x="110.96000000000004" y="462.98800000000006" as="sourcePoint" />
            <mxPoint x="220" y="480" as="targetPoint" />
            <Array as="points">
              <mxPoint x="260" y="540" />
              <mxPoint x="400" y="540" />
            </Array>
          </mxGeometry>
        </mxCell>
        <mxCell id="e3ONbIN_NZxVvGXWSOGe-5" value="Use" style="endArrow=open;endSize=12;dashed=1;html=1;rounded=0;exitX=0.5;exitY=0;exitDx=0;exitDy=0;entryX=0.5;entryY=1;entryDx=0;entryDy=0;" parent="1" source="si1_aMFaE8ZHrP522x67-6" target="si1_aMFaE8ZHrP522x67-13" edge="1">
          <mxGeometry width="160" relative="1" as="geometry">
            <mxPoint x="-100" y="300" as="sourcePoint" />
            <mxPoint x="60" y="300" as="targetPoint" />
          </mxGeometry>
        </mxCell>
        <mxCell id="e3ONbIN_NZxVvGXWSOGe-6" value="" style="endArrow=diamondThin;endFill=1;endSize=24;html=1;rounded=0;entryX=1;entryY=0.5;entryDx=0;entryDy=0;exitX=0;exitY=0.5;exitDx=0;exitDy=0;" parent="1" source="Qx4rC9yRn6OZIbZmV-vm-6" target="si1_aMFaE8ZHrP522x67-7" edge="1">
          <mxGeometry width="160" relative="1" as="geometry">
            <mxPoint x="30" y="540" as="sourcePoint" />
            <mxPoint x="-220" y="535" as="targetPoint" />
            <Array as="points">
              <mxPoint x="-40" y="413" />
              <mxPoint x="-40" y="450" />
            </Array>
          </mxGeometry>
        </mxCell>
        <mxCell id="e3ONbIN_NZxVvGXWSOGe-7" value="" style="endArrow=diamondThin;endFill=1;endSize=24;html=1;rounded=0;entryX=0.548;entryY=1.038;entryDx=0;entryDy=0;exitX=0.006;exitY=-0.154;exitDx=0;exitDy=0;exitPerimeter=0;entryPerimeter=0;" parent="1" source="si1_aMFaE8ZHrP522x67-4" target="e3ONbIN_NZxVvGXWSOGe-8" edge="1">
          <mxGeometry width="160" relative="1" as="geometry">
            <mxPoint x="80" y="520" as="sourcePoint" />
            <mxPoint x="-220" y="535" as="targetPoint" />
            <Array as="points">
              <mxPoint x="-340" y="732" />
            </Array>
          </mxGeometry>
        </mxCell>
        <mxCell id="e3ONbIN_NZxVvGXWSOGe-9" value="" style="endArrow=diamondThin;endFill=0;endSize=24;html=1;rounded=0;entryX=0.25;entryY=0;entryDx=0;entryDy=0;exitX=0.5;exitY=1.115;exitDx=0;exitDy=0;exitPerimeter=0;" parent="1" source="vrQBTWX8RY0tgM8DFvfD-13" target="Qx4rC9yRn6OZIbZmV-vm-17" edge="1">
          <mxGeometry width="160" relative="1" as="geometry">
            <mxPoint x="60" y="550" as="sourcePoint" />
            <mxPoint x="200" y="300" as="targetPoint" />
            <Array as="points">
              <mxPoint x="150" y="570" />
              <mxPoint x="180" y="570" />
            </Array>
          </mxGeometry>
        </mxCell>
        <mxCell id="vrQBTWX8RY0tgM8DFvfD-1" value="Validator" style="swimlane;fontStyle=1;align=center;verticalAlign=top;childLayout=stackLayout;horizontal=1;startSize=20;horizontalStack=0;resizeParent=1;resizeParentMax=0;resizeLast=0;collapsible=1;marginBottom=0;" parent="1" vertex="1">
          <mxGeometry x="-630" y="640" width="160" height="98" as="geometry" />
        </mxCell>
        <mxCell id="vrQBTWX8RY0tgM8DFvfD-2" value="- dateTime: DateTime" style="text;strokeColor=none;fillColor=none;align=left;verticalAlign=top;spacingLeft=4;spacingRight=4;overflow=hidden;rotatable=0;points=[[0,0.5],[1,0.5]];portConstraint=eastwest;" parent="vrQBTWX8RY0tgM8DFvfD-1" vertex="1">
          <mxGeometry y="20" width="160" height="26" as="geometry" />
        </mxCell>
        <mxCell id="vrQBTWX8RY0tgM8DFvfD-3" value="- cost: float" style="text;strokeColor=none;fillColor=none;align=left;verticalAlign=top;spacingLeft=4;spacingRight=4;overflow=hidden;rotatable=0;points=[[0,0.5],[1,0.5]];portConstraint=eastwest;" parent="vrQBTWX8RY0tgM8DFvfD-1" vertex="1">
          <mxGeometry y="46" width="160" height="26" as="geometry" />
        </mxCell>
        <mxCell id="vrQBTWX8RY0tgM8DFvfD-4" value="- notes: String" style="text;strokeColor=none;fillColor=none;align=left;verticalAlign=top;spacingLeft=4;spacingRight=4;overflow=hidden;rotatable=0;points=[[0,0.5],[1,0.5]];portConstraint=eastwest;" parent="vrQBTWX8RY0tgM8DFvfD-1" vertex="1">
          <mxGeometry y="72" width="160" height="26" as="geometry" />
        </mxCell>
        <mxCell id="vrQBTWX8RY0tgM8DFvfD-5" value="InputHandler" style="swimlane;fontStyle=1;align=center;verticalAlign=top;childLayout=stackLayout;horizontal=1;startSize=20;horizontalStack=0;resizeParent=1;resizeParentMax=0;resizeLast=0;collapsible=1;marginBottom=0;" parent="1" vertex="1">
          <mxGeometry x="-630" y="760" width="190" height="98" as="geometry" />
        </mxCell>
        <mxCell id="vrQBTWX8RY0tgM8DFvfD-6" value="+ static promptString(): String" style="text;strokeColor=none;fillColor=none;align=left;verticalAlign=top;spacingLeft=4;spacingRight=4;overflow=hidden;rotatable=0;points=[[0,0.5],[1,0.5]];portConstraint=eastwest;" parent="vrQBTWX8RY0tgM8DFvfD-5" vertex="1">
          <mxGeometry y="20" width="190" height="26" as="geometry" />
        </mxCell>
        <mxCell id="vrQBTWX8RY0tgM8DFvfD-7" value="+ static promptInt(): int" style="text;strokeColor=none;fillColor=none;align=left;verticalAlign=top;spacingLeft=4;spacingRight=4;overflow=hidden;rotatable=0;points=[[0,0.5],[1,0.5]];portConstraint=eastwest;" parent="vrQBTWX8RY0tgM8DFvfD-5" vertex="1">
          <mxGeometry y="46" width="190" height="26" as="geometry" />
        </mxCell>
        <mxCell id="vrQBTWX8RY0tgM8DFvfD-8" value="+ static promptDouble(): double" style="text;strokeColor=none;fillColor=none;align=left;verticalAlign=top;spacingLeft=4;spacingRight=4;overflow=hidden;rotatable=0;points=[[0,0.5],[1,0.5]];portConstraint=eastwest;" parent="vrQBTWX8RY0tgM8DFvfD-5" vertex="1">
          <mxGeometry y="72" width="190" height="26" as="geometry" />
        </mxCell>
      </root>
    </mxGraphModel>
  </diagram>
  <diagram id="CpWU53yPjX99TywdsCVV" name="use case diagram">
    <mxGraphModel dx="2261" dy="757" grid="1" gridSize="10" guides="1" tooltips="1" connect="1" arrows="1" fold="1" page="1" pageScale="1" pageWidth="827" pageHeight="1169" math="0" shadow="0">
      <root>
        <mxCell id="0" />
        <mxCell id="1" parent="0" />
        <mxCell id="Kr2x3Adfv-Ss7ILBEwWN-12" style="rounded=0;orthogonalLoop=1;jettySize=auto;html=1;entryX=0;entryY=0.5;entryDx=0;entryDy=0;endArrow=none;endFill=0;" parent="1" source="K-pkWlTWaFJRGE4i0rlm-1" target="K-pkWlTWaFJRGE4i0rlm-3" edge="1">
          <mxGeometry relative="1" as="geometry" />
        </mxCell>
        <mxCell id="Kr2x3Adfv-Ss7ILBEwWN-13" style="edgeStyle=none;rounded=0;orthogonalLoop=1;jettySize=auto;html=1;entryX=0;entryY=0.5;entryDx=0;entryDy=0;endArrow=none;endFill=0;" parent="1" source="K-pkWlTWaFJRGE4i0rlm-1" target="Kr2x3Adfv-Ss7ILBEwWN-1" edge="1">
          <mxGeometry relative="1" as="geometry" />
        </mxCell>
        <mxCell id="Kr2x3Adfv-Ss7ILBEwWN-14" style="edgeStyle=none;rounded=0;orthogonalLoop=1;jettySize=auto;html=1;entryX=0;entryY=0.5;entryDx=0;entryDy=0;endArrow=none;endFill=0;" parent="1" source="K-pkWlTWaFJRGE4i0rlm-1" target="Kr2x3Adfv-Ss7ILBEwWN-5" edge="1">
          <mxGeometry relative="1" as="geometry" />
        </mxCell>
        <mxCell id="K-pkWlTWaFJRGE4i0rlm-1" value="User" style="shape=umlActor;verticalLabelPosition=bottom;verticalAlign=top;html=1;outlineConnect=0;" parent="1" vertex="1">
          <mxGeometry x="-350" y="290" width="30" height="60" as="geometry" />
        </mxCell>
        <mxCell id="Kr2x3Adfv-Ss7ILBEwWN-24" style="edgeStyle=none;rounded=0;orthogonalLoop=1;jettySize=auto;html=1;endArrow=none;endFill=0;" parent="1" source="Kr2x3Adfv-Ss7ILBEwWN-2" target="K-pkWlTWaFJRGE4i0rlm-4" edge="1">
          <mxGeometry relative="1" as="geometry" />
        </mxCell>
        <mxCell id="Kr2x3Adfv-Ss7ILBEwWN-25" style="edgeStyle=none;rounded=0;orthogonalLoop=1;jettySize=auto;html=1;entryX=1;entryY=0.5;entryDx=0;entryDy=0;endArrow=none;endFill=0;" parent="1" source="Kr2x3Adfv-Ss7ILBEwWN-2" target="K-pkWlTWaFJRGE4i0rlm-5" edge="1">
          <mxGeometry relative="1" as="geometry" />
        </mxCell>
        <mxCell id="Kr2x3Adfv-Ss7ILBEwWN-28" style="edgeStyle=none;rounded=0;orthogonalLoop=1;jettySize=auto;html=1;entryX=0.983;entryY=0.625;entryDx=0;entryDy=0;entryPerimeter=0;endArrow=none;endFill=0;" parent="1" source="Kr2x3Adfv-Ss7ILBEwWN-2" target="K-pkWlTWaFJRGE4i0rlm-7" edge="1">
          <mxGeometry relative="1" as="geometry" />
        </mxCell>
        <mxCell id="Kr2x3Adfv-Ss7ILBEwWN-29" style="edgeStyle=none;rounded=0;orthogonalLoop=1;jettySize=auto;html=1;entryX=1;entryY=0.5;entryDx=0;entryDy=0;endArrow=none;endFill=0;" parent="1" source="Kr2x3Adfv-Ss7ILBEwWN-2" target="Kr2x3Adfv-Ss7ILBEwWN-3" edge="1">
          <mxGeometry relative="1" as="geometry" />
        </mxCell>
        <mxCell id="Kr2x3Adfv-Ss7ILBEwWN-30" style="edgeStyle=none;rounded=0;orthogonalLoop=1;jettySize=auto;html=1;entryX=1;entryY=0.5;entryDx=0;entryDy=0;endArrow=none;endFill=0;" parent="1" source="Kr2x3Adfv-Ss7ILBEwWN-2" target="Kr2x3Adfv-Ss7ILBEwWN-4" edge="1">
          <mxGeometry relative="1" as="geometry" />
        </mxCell>
        <mxCell id="Kr2x3Adfv-Ss7ILBEwWN-31" style="edgeStyle=none;rounded=0;orthogonalLoop=1;jettySize=auto;html=1;endArrow=none;endFill=0;entryX=1;entryY=0.5;entryDx=0;entryDy=0;" parent="1" source="Kr2x3Adfv-Ss7ILBEwWN-2" target="K-pkWlTWaFJRGE4i0rlm-8" edge="1">
          <mxGeometry relative="1" as="geometry" />
        </mxCell>
        <mxCell id="Kr2x3Adfv-Ss7ILBEwWN-2" value="Manager/admin" style="shape=umlActor;verticalLabelPosition=bottom;verticalAlign=top;html=1;outlineConnect=0;" parent="1" vertex="1">
          <mxGeometry x="910" y="430" width="30" height="60" as="geometry" />
        </mxCell>
        <mxCell id="Kr2x3Adfv-Ss7ILBEwWN-7" value="" style="swimlane;startSize=0;" parent="1" vertex="1">
          <mxGeometry x="-260" y="50" width="650" height="590" as="geometry" />
        </mxCell>
        <mxCell id="Kr2x3Adfv-Ss7ILBEwWN-17" style="edgeStyle=none;rounded=0;orthogonalLoop=1;jettySize=auto;html=1;endArrow=none;endFill=0;" parent="Kr2x3Adfv-Ss7ILBEwWN-7" source="K-pkWlTWaFJRGE4i0rlm-3" target="Kr2x3Adfv-Ss7ILBEwWN-11" edge="1">
          <mxGeometry relative="1" as="geometry" />
        </mxCell>
        <mxCell id="K-pkWlTWaFJRGE4i0rlm-3" value="Create a consultation" style="ellipse;whiteSpace=wrap;html=1;" parent="Kr2x3Adfv-Ss7ILBEwWN-7" vertex="1">
          <mxGeometry x="30" y="200" width="120" height="80" as="geometry" />
        </mxCell>
        <mxCell id="K-pkWlTWaFJRGE4i0rlm-14" value="Update consultation" style="ellipse;whiteSpace=wrap;html=1;" parent="Kr2x3Adfv-Ss7ILBEwWN-7" vertex="1">
          <mxGeometry x="120" y="480" width="120" height="80" as="geometry" />
        </mxCell>
        <mxCell id="K-pkWlTWaFJRGE4i0rlm-15" value="Cancel consultation" style="ellipse;whiteSpace=wrap;html=1;" parent="Kr2x3Adfv-Ss7ILBEwWN-7" vertex="1">
          <mxGeometry x="270" y="350" width="120" height="80" as="geometry" />
        </mxCell>
        <mxCell id="Kr2x3Adfv-Ss7ILBEwWN-1" value="View doctors" style="ellipse;whiteSpace=wrap;html=1;" parent="Kr2x3Adfv-Ss7ILBEwWN-7" vertex="1">
          <mxGeometry x="30" y="20" width="120" height="80" as="geometry" />
        </mxCell>
        <mxCell id="Kr2x3Adfv-Ss7ILBEwWN-15" style="edgeStyle=none;rounded=0;orthogonalLoop=1;jettySize=auto;html=1;endArrow=none;endFill=0;" parent="Kr2x3Adfv-Ss7ILBEwWN-7" source="Kr2x3Adfv-Ss7ILBEwWN-5" target="K-pkWlTWaFJRGE4i0rlm-15" edge="1">
          <mxGeometry relative="1" as="geometry" />
        </mxCell>
        <mxCell id="Kr2x3Adfv-Ss7ILBEwWN-16" style="edgeStyle=none;rounded=0;orthogonalLoop=1;jettySize=auto;html=1;endArrow=none;endFill=0;" parent="Kr2x3Adfv-Ss7ILBEwWN-7" source="Kr2x3Adfv-Ss7ILBEwWN-5" target="K-pkWlTWaFJRGE4i0rlm-14" edge="1">
          <mxGeometry relative="1" as="geometry" />
        </mxCell>
        <mxCell id="Kr2x3Adfv-Ss7ILBEwWN-5" value="View Consultations" style="ellipse;whiteSpace=wrap;html=1;" parent="Kr2x3Adfv-Ss7ILBEwWN-7" vertex="1">
          <mxGeometry x="30" y="290" width="120" height="80" as="geometry" />
        </mxCell>
        <mxCell id="Kr2x3Adfv-Ss7ILBEwWN-22" style="edgeStyle=none;rounded=0;orthogonalLoop=1;jettySize=auto;html=1;endArrow=none;endFill=0;" parent="Kr2x3Adfv-Ss7ILBEwWN-7" source="Kr2x3Adfv-Ss7ILBEwWN-9" target="Kr2x3Adfv-Ss7ILBEwWN-21" edge="1">
          <mxGeometry relative="1" as="geometry" />
        </mxCell>
        <mxCell id="BzVJo8qRkUO3LU3pm4ZL-1" style="edgeStyle=none;rounded=0;orthogonalLoop=1;jettySize=auto;html=1;exitX=0.5;exitY=1;exitDx=0;exitDy=0;entryX=0.5;entryY=0;entryDx=0;entryDy=0;dashed=1;endArrow=open;endFill=0;" parent="Kr2x3Adfv-Ss7ILBEwWN-7" source="Kr2x3Adfv-Ss7ILBEwWN-9" target="Kr2x3Adfv-Ss7ILBEwWN-10" edge="1">
          <mxGeometry relative="1" as="geometry" />
        </mxCell>
        <mxCell id="Kr2x3Adfv-Ss7ILBEwWN-9" value="Select Patient" style="ellipse;whiteSpace=wrap;html=1;" parent="Kr2x3Adfv-Ss7ILBEwWN-7" vertex="1">
          <mxGeometry x="350" y="200" width="120" height="80" as="geometry" />
        </mxCell>
        <mxCell id="Kr2x3Adfv-Ss7ILBEwWN-10" value="Add Patient" style="ellipse;whiteSpace=wrap;html=1;" parent="Kr2x3Adfv-Ss7ILBEwWN-7" vertex="1">
          <mxGeometry x="410" y="20" width="120" height="80" as="geometry" />
        </mxCell>
        <mxCell id="Kr2x3Adfv-Ss7ILBEwWN-18" style="edgeStyle=none;rounded=0;orthogonalLoop=1;jettySize=auto;html=1;endArrow=none;endFill=0;" parent="Kr2x3Adfv-Ss7ILBEwWN-7" source="Kr2x3Adfv-Ss7ILBEwWN-11" target="Kr2x3Adfv-Ss7ILBEwWN-9" edge="1">
          <mxGeometry relative="1" as="geometry" />
        </mxCell>
        <mxCell id="pEuBxQOfbLgx0ONcNEHf-5" style="rounded=0;orthogonalLoop=1;jettySize=auto;html=1;dashed=1;endArrow=open;endFill=0;" edge="1" parent="Kr2x3Adfv-Ss7ILBEwWN-7" source="Kr2x3Adfv-Ss7ILBEwWN-11" target="pEuBxQOfbLgx0ONcNEHf-4">
          <mxGeometry relative="1" as="geometry" />
        </mxCell>
        <mxCell id="Kr2x3Adfv-Ss7ILBEwWN-11" value="Check Availability" style="ellipse;whiteSpace=wrap;html=1;" parent="Kr2x3Adfv-Ss7ILBEwWN-7" vertex="1">
          <mxGeometry x="190" y="200" width="120" height="80" as="geometry" />
        </mxCell>
        <mxCell id="Kr2x3Adfv-Ss7ILBEwWN-21" value="Add consultation info" style="ellipse;whiteSpace=wrap;html=1;" parent="Kr2x3Adfv-Ss7ILBEwWN-7" vertex="1">
          <mxGeometry x="510" y="200" width="120" height="80" as="geometry" />
        </mxCell>
        <mxCell id="pEuBxQOfbLgx0ONcNEHf-3" value="&amp;lt;&amp;lt;uses&amp;gt;&amp;gt;" style="text;html=1;strokeColor=none;fillColor=none;align=center;verticalAlign=middle;whiteSpace=wrap;rounded=0;" vertex="1" parent="Kr2x3Adfv-Ss7ILBEwWN-7">
          <mxGeometry x="420" y="140" width="60" height="30" as="geometry" />
        </mxCell>
        <mxCell id="pEuBxQOfbLgx0ONcNEHf-4" value="Select Doctor" style="ellipse;whiteSpace=wrap;html=1;" vertex="1" parent="Kr2x3Adfv-Ss7ILBEwWN-7">
          <mxGeometry x="230" width="120" height="80" as="geometry" />
        </mxCell>
        <mxCell id="pEuBxQOfbLgx0ONcNEHf-6" value="&amp;lt;&amp;lt;uses&amp;gt;&amp;gt;" style="text;html=1;strokeColor=none;fillColor=none;align=center;verticalAlign=middle;whiteSpace=wrap;rounded=0;" vertex="1" parent="Kr2x3Adfv-Ss7ILBEwWN-7">
          <mxGeometry x="250" y="140" width="60" height="30" as="geometry" />
        </mxCell>
        <mxCell id="pEuBxQOfbLgx0ONcNEHf-7" style="edgeStyle=none;rounded=0;orthogonalLoop=1;jettySize=auto;html=1;endArrow=open;endFill=0;dashed=1;exitX=0.5;exitY=1;exitDx=0;exitDy=0;" edge="1" parent="Kr2x3Adfv-Ss7ILBEwWN-7" source="Kr2x3Adfv-Ss7ILBEwWN-1" target="Kr2x3Adfv-Ss7ILBEwWN-11">
          <mxGeometry relative="1" as="geometry">
            <mxPoint x="150" y="280" as="sourcePoint" />
            <mxPoint x="230" y="280" as="targetPoint" />
          </mxGeometry>
        </mxCell>
        <mxCell id="pEuBxQOfbLgx0ONcNEHf-8" value="&amp;lt;&amp;lt;includes&amp;gt;&amp;gt;" style="text;html=1;strokeColor=none;fillColor=none;align=center;verticalAlign=middle;whiteSpace=wrap;rounded=0;" vertex="1" parent="Kr2x3Adfv-Ss7ILBEwWN-7">
          <mxGeometry x="130" y="140" width="60" height="30" as="geometry" />
        </mxCell>
        <mxCell id="Kr2x3Adfv-Ss7ILBEwWN-8" value="" style="swimlane;startSize=0;" parent="1" vertex="1">
          <mxGeometry x="440" y="50" width="350" height="620" as="geometry" />
        </mxCell>
        <mxCell id="K-pkWlTWaFJRGE4i0rlm-4" value="Add a doctor" style="ellipse;whiteSpace=wrap;html=1;" parent="Kr2x3Adfv-Ss7ILBEwWN-8" vertex="1">
          <mxGeometry x="115" y="10" width="120" height="80" as="geometry" />
        </mxCell>
        <mxCell id="K-pkWlTWaFJRGE4i0rlm-5" value="Remove a doctor" style="ellipse;whiteSpace=wrap;html=1;" parent="Kr2x3Adfv-Ss7ILBEwWN-8" vertex="1">
          <mxGeometry x="115" y="110" width="120" height="80" as="geometry" />
        </mxCell>
        <mxCell id="K-pkWlTWaFJRGE4i0rlm-7" value="Open GUI" style="ellipse;whiteSpace=wrap;html=1;" parent="Kr2x3Adfv-Ss7ILBEwWN-8" vertex="1">
          <mxGeometry x="115" y="210" width="120" height="80" as="geometry" />
        </mxCell>
        <mxCell id="Kr2x3Adfv-Ss7ILBEwWN-3" value="Save application state" style="ellipse;whiteSpace=wrap;html=1;" parent="Kr2x3Adfv-Ss7ILBEwWN-8" vertex="1">
          <mxGeometry x="115" y="310" width="120" height="80" as="geometry" />
        </mxCell>
        <mxCell id="Kr2x3Adfv-Ss7ILBEwWN-4" value="Load Application state" style="ellipse;whiteSpace=wrap;html=1;" parent="Kr2x3Adfv-Ss7ILBEwWN-8" vertex="1">
          <mxGeometry x="115" y="404.5" width="120" height="80" as="geometry" />
        </mxCell>
        <mxCell id="K-pkWlTWaFJRGE4i0rlm-8" value="List doctors" style="ellipse;whiteSpace=wrap;html=1;" parent="Kr2x3Adfv-Ss7ILBEwWN-8" vertex="1">
          <mxGeometry x="115" y="500" width="120" height="80" as="geometry" />
        </mxCell>
      </root>
    </mxGraphModel>
  </diagram>
  <diagram id="vgE3XWFXIB6DrRlOH_P7" name="class diagram -v2">
    <mxGraphModel dx="1434" dy="757" grid="1" gridSize="10" guides="1" tooltips="1" connect="1" arrows="1" fold="1" page="1" pageScale="1" pageWidth="827" pageHeight="1169" math="0" shadow="0">
      <root>
        <mxCell id="0" />
        <mxCell id="1" parent="0" />
        <mxCell id="2FSQS6BrmJU-oLWJQJ1F-1" value="Person" style="swimlane;fontStyle=1;align=center;verticalAlign=top;childLayout=stackLayout;horizontal=1;startSize=26;horizontalStack=0;resizeParent=1;resizeParentMax=0;resizeLast=0;collapsible=1;marginBottom=0;" parent="1" vertex="1">
          <mxGeometry x="140" y="180" width="170" height="372" as="geometry" />
        </mxCell>
        <mxCell id="2FSQS6BrmJU-oLWJQJ1F-2" value="- name: String" style="text;strokeColor=none;fillColor=none;align=left;verticalAlign=top;spacingLeft=4;spacingRight=4;overflow=hidden;rotatable=0;points=[[0,0.5],[1,0.5]];portConstraint=eastwest;" parent="2FSQS6BrmJU-oLWJQJ1F-1" vertex="1">
          <mxGeometry y="26" width="170" height="26" as="geometry" />
        </mxCell>
        <mxCell id="2FSQS6BrmJU-oLWJQJ1F-5" value="- surname: String" style="text;strokeColor=none;fillColor=none;align=left;verticalAlign=top;spacingLeft=4;spacingRight=4;overflow=hidden;rotatable=0;points=[[0,0.5],[1,0.5]];portConstraint=eastwest;" parent="2FSQS6BrmJU-oLWJQJ1F-1" vertex="1">
          <mxGeometry y="52" width="170" height="26" as="geometry" />
        </mxCell>
        <mxCell id="2FSQS6BrmJU-oLWJQJ1F-6" value="- dob: LocalDate" style="text;strokeColor=none;fillColor=none;align=left;verticalAlign=top;spacingLeft=4;spacingRight=4;overflow=hidden;rotatable=0;points=[[0,0.5],[1,0.5]];portConstraint=eastwest;" parent="2FSQS6BrmJU-oLWJQJ1F-1" vertex="1">
          <mxGeometry y="78" width="170" height="26" as="geometry" />
        </mxCell>
        <mxCell id="2FSQS6BrmJU-oLWJQJ1F-7" value="- contactNo: String" style="text;strokeColor=none;fillColor=none;align=left;verticalAlign=top;spacingLeft=4;spacingRight=4;overflow=hidden;rotatable=0;points=[[0,0.5],[1,0.5]];portConstraint=eastwest;" parent="2FSQS6BrmJU-oLWJQJ1F-1" vertex="1">
          <mxGeometry y="104" width="170" height="26" as="geometry" />
        </mxCell>
        <mxCell id="2FSQS6BrmJU-oLWJQJ1F-3" value="" style="line;strokeWidth=1;fillColor=none;align=left;verticalAlign=middle;spacingTop=-1;spacingLeft=3;spacingRight=3;rotatable=0;labelPosition=right;points=[];portConstraint=eastwest;strokeColor=inherit;" parent="2FSQS6BrmJU-oLWJQJ1F-1" vertex="1">
          <mxGeometry y="130" width="170" height="8" as="geometry" />
        </mxCell>
        <mxCell id="2FSQS6BrmJU-oLWJQJ1F-4" value="+ getFullName(): String" style="text;strokeColor=none;fillColor=none;align=left;verticalAlign=top;spacingLeft=4;spacingRight=4;overflow=hidden;rotatable=0;points=[[0,0.5],[1,0.5]];portConstraint=eastwest;" parent="2FSQS6BrmJU-oLWJQJ1F-1" vertex="1">
          <mxGeometry y="138" width="170" height="26" as="geometry" />
        </mxCell>
        <mxCell id="MdLH3Nq7ZtCbkUKNxwGG-16" value="+ getName(): String" style="text;strokeColor=none;fillColor=none;align=left;verticalAlign=top;spacingLeft=4;spacingRight=4;overflow=hidden;rotatable=0;points=[[0,0.5],[1,0.5]];portConstraint=eastwest;" vertex="1" parent="2FSQS6BrmJU-oLWJQJ1F-1">
          <mxGeometry y="164" width="170" height="26" as="geometry" />
        </mxCell>
        <mxCell id="MdLH3Nq7ZtCbkUKNxwGG-17" value="+ setName(String): void" style="text;strokeColor=none;fillColor=none;align=left;verticalAlign=top;spacingLeft=4;spacingRight=4;overflow=hidden;rotatable=0;points=[[0,0.5],[1,0.5]];portConstraint=eastwest;" vertex="1" parent="2FSQS6BrmJU-oLWJQJ1F-1">
          <mxGeometry y="190" width="170" height="26" as="geometry" />
        </mxCell>
        <mxCell id="MdLH3Nq7ZtCbkUKNxwGG-18" value="+ getSurname(): String" style="text;strokeColor=none;fillColor=none;align=left;verticalAlign=top;spacingLeft=4;spacingRight=4;overflow=hidden;rotatable=0;points=[[0,0.5],[1,0.5]];portConstraint=eastwest;" vertex="1" parent="2FSQS6BrmJU-oLWJQJ1F-1">
          <mxGeometry y="216" width="170" height="26" as="geometry" />
        </mxCell>
        <mxCell id="MdLH3Nq7ZtCbkUKNxwGG-19" value="+ setSurname(String): void" style="text;strokeColor=none;fillColor=none;align=left;verticalAlign=top;spacingLeft=4;spacingRight=4;overflow=hidden;rotatable=0;points=[[0,0.5],[1,0.5]];portConstraint=eastwest;" vertex="1" parent="2FSQS6BrmJU-oLWJQJ1F-1">
          <mxGeometry y="242" width="170" height="26" as="geometry" />
        </mxCell>
        <mxCell id="MdLH3Nq7ZtCbkUKNxwGG-20" value="+ getDob(): String" style="text;strokeColor=none;fillColor=none;align=left;verticalAlign=top;spacingLeft=4;spacingRight=4;overflow=hidden;rotatable=0;points=[[0,0.5],[1,0.5]];portConstraint=eastwest;" vertex="1" parent="2FSQS6BrmJU-oLWJQJ1F-1">
          <mxGeometry y="268" width="170" height="26" as="geometry" />
        </mxCell>
        <mxCell id="MdLH3Nq7ZtCbkUKNxwGG-21" value="+ setDob(String): void" style="text;strokeColor=none;fillColor=none;align=left;verticalAlign=top;spacingLeft=4;spacingRight=4;overflow=hidden;rotatable=0;points=[[0,0.5],[1,0.5]];portConstraint=eastwest;" vertex="1" parent="2FSQS6BrmJU-oLWJQJ1F-1">
          <mxGeometry y="294" width="170" height="26" as="geometry" />
        </mxCell>
        <mxCell id="MdLH3Nq7ZtCbkUKNxwGG-22" value="+ getContactNo(): String" style="text;strokeColor=none;fillColor=none;align=left;verticalAlign=top;spacingLeft=4;spacingRight=4;overflow=hidden;rotatable=0;points=[[0,0.5],[1,0.5]];portConstraint=eastwest;" vertex="1" parent="2FSQS6BrmJU-oLWJQJ1F-1">
          <mxGeometry y="320" width="170" height="26" as="geometry" />
        </mxCell>
        <mxCell id="MdLH3Nq7ZtCbkUKNxwGG-23" value="+ setContactNo(String): void" style="text;strokeColor=none;fillColor=none;align=left;verticalAlign=top;spacingLeft=4;spacingRight=4;overflow=hidden;rotatable=0;points=[[0,0.5],[1,0.5]];portConstraint=eastwest;" vertex="1" parent="2FSQS6BrmJU-oLWJQJ1F-1">
          <mxGeometry y="346" width="170" height="26" as="geometry" />
        </mxCell>
        <mxCell id="2FSQS6BrmJU-oLWJQJ1F-8" value="Doctor" style="swimlane;fontStyle=1;align=center;verticalAlign=top;childLayout=stackLayout;horizontal=1;startSize=26;horizontalStack=0;resizeParent=1;resizeParentMax=0;resizeLast=0;collapsible=1;marginBottom=0;" parent="1" vertex="1">
          <mxGeometry x="550" y="320" width="330" height="476" as="geometry" />
        </mxCell>
        <mxCell id="2FSQS6BrmJU-oLWJQJ1F-9" value="+ tableColumns: String[]" style="text;strokeColor=none;fillColor=none;align=left;verticalAlign=top;spacingLeft=4;spacingRight=4;overflow=hidden;rotatable=0;points=[[0,0.5],[1,0.5]];portConstraint=eastwest;fontStyle=4" parent="2FSQS6BrmJU-oLWJQJ1F-8" vertex="1">
          <mxGeometry y="26" width="330" height="26" as="geometry" />
        </mxCell>
        <mxCell id="MdLH3Nq7ZtCbkUKNxwGG-25" value="+ tableFieldNames: String[]" style="text;strokeColor=none;fillColor=none;align=left;verticalAlign=top;spacingLeft=4;spacingRight=4;overflow=hidden;rotatable=0;points=[[0,0.5],[1,0.5]];portConstraint=eastwest;fontStyle=4" vertex="1" parent="2FSQS6BrmJU-oLWJQJ1F-8">
          <mxGeometry y="52" width="330" height="26" as="geometry" />
        </mxCell>
        <mxCell id="MdLH3Nq7ZtCbkUKNxwGG-27" value="- medicalLicenseNo: String" style="text;strokeColor=none;fillColor=none;align=left;verticalAlign=top;spacingLeft=4;spacingRight=4;overflow=hidden;rotatable=0;points=[[0,0.5],[1,0.5]];portConstraint=eastwest;" vertex="1" parent="2FSQS6BrmJU-oLWJQJ1F-8">
          <mxGeometry y="78" width="330" height="26" as="geometry" />
        </mxCell>
        <mxCell id="MdLH3Nq7ZtCbkUKNxwGG-28" value="- specialisation: String" style="text;strokeColor=none;fillColor=none;align=left;verticalAlign=top;spacingLeft=4;spacingRight=4;overflow=hidden;rotatable=0;points=[[0,0.5],[1,0.5]];portConstraint=eastwest;" vertex="1" parent="2FSQS6BrmJU-oLWJQJ1F-8">
          <mxGeometry y="104" width="330" height="26" as="geometry" />
        </mxCell>
        <mxCell id="MdLH3Nq7ZtCbkUKNxwGG-24" value="- consultations: TreeSet&lt;Consultation&gt;" style="text;strokeColor=none;fillColor=none;align=left;verticalAlign=top;spacingLeft=4;spacingRight=4;overflow=hidden;rotatable=0;points=[[0,0.5],[1,0.5]];portConstraint=eastwest;" vertex="1" parent="2FSQS6BrmJU-oLWJQJ1F-8">
          <mxGeometry y="130" width="330" height="26" as="geometry" />
        </mxCell>
        <mxCell id="2FSQS6BrmJU-oLWJQJ1F-10" value="- consultationStart: LocalTime" style="text;strokeColor=none;fillColor=none;align=left;verticalAlign=top;spacingLeft=4;spacingRight=4;overflow=hidden;rotatable=0;points=[[0,0.5],[1,0.5]];portConstraint=eastwest;" parent="2FSQS6BrmJU-oLWJQJ1F-8" vertex="1">
          <mxGeometry y="156" width="330" height="26" as="geometry" />
        </mxCell>
        <mxCell id="MdLH3Nq7ZtCbkUKNxwGG-26" value="- consultationEnd: LocalTime" style="text;strokeColor=none;fillColor=none;align=left;verticalAlign=top;spacingLeft=4;spacingRight=4;overflow=hidden;rotatable=0;points=[[0,0.5],[1,0.5]];portConstraint=eastwest;" vertex="1" parent="2FSQS6BrmJU-oLWJQJ1F-8">
          <mxGeometry y="182" width="330" height="26" as="geometry" />
        </mxCell>
        <mxCell id="MdLH3Nq7ZtCbkUKNxwGG-29" value="" style="line;strokeWidth=1;fillColor=none;align=left;verticalAlign=middle;spacingTop=-1;spacingLeft=3;spacingRight=3;rotatable=0;labelPosition=right;points=[];portConstraint=eastwest;strokeColor=inherit;" vertex="1" parent="2FSQS6BrmJU-oLWJQJ1F-8">
          <mxGeometry y="208" width="330" height="8" as="geometry" />
        </mxCell>
        <mxCell id="MdLH3Nq7ZtCbkUKNxwGG-30" value="+ addConsultation(): void" style="text;strokeColor=none;fillColor=none;align=left;verticalAlign=top;spacingLeft=4;spacingRight=4;overflow=hidden;rotatable=0;points=[[0,0.5],[1,0.5]];portConstraint=eastwest;" vertex="1" parent="2FSQS6BrmJU-oLWJQJ1F-8">
          <mxGeometry y="216" width="330" height="26" as="geometry" />
        </mxCell>
        <mxCell id="MdLH3Nq7ZtCbkUKNxwGG-31" value="+ findConsultationsByDate(LocalDate): List&lt;Consultation&gt;" style="text;strokeColor=none;fillColor=none;align=left;verticalAlign=top;spacingLeft=4;spacingRight=4;overflow=hidden;rotatable=0;points=[[0,0.5],[1,0.5]];portConstraint=eastwest;" vertex="1" parent="2FSQS6BrmJU-oLWJQJ1F-8">
          <mxGeometry y="242" width="330" height="26" as="geometry" />
        </mxCell>
        <mxCell id="MdLH3Nq7ZtCbkUKNxwGG-32" value="+ updateConsultation(): void" style="text;strokeColor=none;fillColor=none;align=left;verticalAlign=top;spacingLeft=4;spacingRight=4;overflow=hidden;rotatable=0;points=[[0,0.5],[1,0.5]];portConstraint=eastwest;" vertex="1" parent="2FSQS6BrmJU-oLWJQJ1F-8">
          <mxGeometry y="268" width="330" height="26" as="geometry" />
        </mxCell>
        <mxCell id="MdLH3Nq7ZtCbkUKNxwGG-33" value="+ getAvailability(LocalDateTime): boolean" style="text;strokeColor=none;fillColor=none;align=left;verticalAlign=top;spacingLeft=4;spacingRight=4;overflow=hidden;rotatable=0;points=[[0,0.5],[1,0.5]];portConstraint=eastwest;" vertex="1" parent="2FSQS6BrmJU-oLWJQJ1F-8">
          <mxGeometry y="294" width="330" height="26" as="geometry" />
        </mxCell>
        <mxCell id="MdLH3Nq7ZtCbkUKNxwGG-34" value="+ getMedicaLicenceNo(): String" style="text;strokeColor=none;fillColor=none;align=left;verticalAlign=top;spacingLeft=4;spacingRight=4;overflow=hidden;rotatable=0;points=[[0,0.5],[1,0.5]];portConstraint=eastwest;" vertex="1" parent="2FSQS6BrmJU-oLWJQJ1F-8">
          <mxGeometry y="320" width="330" height="26" as="geometry" />
        </mxCell>
        <mxCell id="MdLH3Nq7ZtCbkUKNxwGG-35" value="+ setMedicalLicenceNo(String): void" style="text;strokeColor=none;fillColor=none;align=left;verticalAlign=top;spacingLeft=4;spacingRight=4;overflow=hidden;rotatable=0;points=[[0,0.5],[1,0.5]];portConstraint=eastwest;" vertex="1" parent="2FSQS6BrmJU-oLWJQJ1F-8">
          <mxGeometry y="346" width="330" height="26" as="geometry" />
        </mxCell>
        <mxCell id="MdLH3Nq7ZtCbkUKNxwGG-36" value="+ getSpecilisation(): String" style="text;strokeColor=none;fillColor=none;align=left;verticalAlign=top;spacingLeft=4;spacingRight=4;overflow=hidden;rotatable=0;points=[[0,0.5],[1,0.5]];portConstraint=eastwest;" vertex="1" parent="2FSQS6BrmJU-oLWJQJ1F-8">
          <mxGeometry y="372" width="330" height="26" as="geometry" />
        </mxCell>
        <mxCell id="MdLH3Nq7ZtCbkUKNxwGG-37" value="+ setSpecilisation(String): void" style="text;strokeColor=none;fillColor=none;align=left;verticalAlign=top;spacingLeft=4;spacingRight=4;overflow=hidden;rotatable=0;points=[[0,0.5],[1,0.5]];portConstraint=eastwest;" vertex="1" parent="2FSQS6BrmJU-oLWJQJ1F-8">
          <mxGeometry y="398" width="330" height="26" as="geometry" />
        </mxCell>
        <mxCell id="MdLH3Nq7ZtCbkUKNxwGG-38" value="+ getConsultations(): TreeSet&lt;Consultation&gt;" style="text;strokeColor=none;fillColor=none;align=left;verticalAlign=top;spacingLeft=4;spacingRight=4;overflow=hidden;rotatable=0;points=[[0,0.5],[1,0.5]];portConstraint=eastwest;" vertex="1" parent="2FSQS6BrmJU-oLWJQJ1F-8">
          <mxGeometry y="424" width="330" height="26" as="geometry" />
        </mxCell>
        <mxCell id="MdLH3Nq7ZtCbkUKNxwGG-39" value="+ getSpecilisation(): String" style="text;strokeColor=none;fillColor=none;align=left;verticalAlign=top;spacingLeft=4;spacingRight=4;overflow=hidden;rotatable=0;points=[[0,0.5],[1,0.5]];portConstraint=eastwest;" vertex="1" parent="2FSQS6BrmJU-oLWJQJ1F-8">
          <mxGeometry y="450" width="330" height="26" as="geometry" />
        </mxCell>
        <mxCell id="2FSQS6BrmJU-oLWJQJ1F-23" value="Consultation" style="swimlane;fontStyle=1;align=center;verticalAlign=top;childLayout=stackLayout;horizontal=1;startSize=26;horizontalStack=0;resizeParent=1;resizeParentMax=0;resizeLast=0;collapsible=1;marginBottom=0;" parent="1" vertex="1">
          <mxGeometry x="1130" y="910" width="290" height="658" as="geometry">
            <mxRectangle x="440" y="538" width="110" height="30" as="alternateBounds" />
          </mxGeometry>
        </mxCell>
        <mxCell id="MdLH3Nq7ZtCbkUKNxwGG-49" value="+ tableColumns: String[]" style="text;strokeColor=none;fillColor=none;align=left;verticalAlign=top;spacingLeft=4;spacingRight=4;overflow=hidden;rotatable=0;points=[[0,0.5],[1,0.5]];portConstraint=eastwest;fontStyle=4" vertex="1" parent="2FSQS6BrmJU-oLWJQJ1F-23">
          <mxGeometry y="26" width="290" height="26" as="geometry" />
        </mxCell>
        <mxCell id="MdLH3Nq7ZtCbkUKNxwGG-50" value="+ tableFieldNames: String[]" style="text;strokeColor=none;fillColor=none;align=left;verticalAlign=top;spacingLeft=4;spacingRight=4;overflow=hidden;rotatable=0;points=[[0,0.5],[1,0.5]];portConstraint=eastwest;fontStyle=4" vertex="1" parent="2FSQS6BrmJU-oLWJQJ1F-23">
          <mxGeometry y="52" width="290" height="26" as="geometry" />
        </mxCell>
        <mxCell id="2FSQS6BrmJU-oLWJQJ1F-24" value="- consultationUID: String" style="text;strokeColor=none;fillColor=none;align=left;verticalAlign=top;spacingLeft=4;spacingRight=4;overflow=hidden;rotatable=0;points=[[0,0.5],[1,0.5]];portConstraint=eastwest;" parent="2FSQS6BrmJU-oLWJQJ1F-23" vertex="1">
          <mxGeometry y="78" width="290" height="26" as="geometry" />
        </mxCell>
        <mxCell id="5MHqHmO73GeBWy-8VEGf-1" value="- consultationDateTime: LocalDateTime" style="text;strokeColor=none;fillColor=none;align=left;verticalAlign=top;spacingLeft=4;spacingRight=4;overflow=hidden;rotatable=0;points=[[0,0.5],[1,0.5]];portConstraint=eastwest;" parent="2FSQS6BrmJU-oLWJQJ1F-23" vertex="1">
          <mxGeometry y="104" width="290" height="26" as="geometry" />
        </mxCell>
        <mxCell id="MdLH3Nq7ZtCbkUKNxwGG-51" value="- cost: float" style="text;strokeColor=none;fillColor=none;align=left;verticalAlign=top;spacingLeft=4;spacingRight=4;overflow=hidden;rotatable=0;points=[[0,0.5],[1,0.5]];portConstraint=eastwest;" vertex="1" parent="2FSQS6BrmJU-oLWJQJ1F-23">
          <mxGeometry y="130" width="290" height="26" as="geometry" />
        </mxCell>
        <mxCell id="MdLH3Nq7ZtCbkUKNxwGG-54" value="- textsNotes: File" style="text;strokeColor=none;fillColor=none;align=left;verticalAlign=top;spacingLeft=4;spacingRight=4;overflow=hidden;rotatable=0;points=[[0,0.5],[1,0.5]];portConstraint=eastwest;" vertex="1" parent="2FSQS6BrmJU-oLWJQJ1F-23">
          <mxGeometry y="156" width="290" height="26" as="geometry" />
        </mxCell>
        <mxCell id="MdLH3Nq7ZtCbkUKNxwGG-53" value="- noteImages: ArrayList&lt;File&gt;" style="text;strokeColor=none;fillColor=none;align=left;verticalAlign=top;spacingLeft=4;spacingRight=4;overflow=hidden;rotatable=0;points=[[0,0.5],[1,0.5]];portConstraint=eastwest;" vertex="1" parent="2FSQS6BrmJU-oLWJQJ1F-23">
          <mxGeometry y="182" width="290" height="26" as="geometry" />
        </mxCell>
        <mxCell id="MdLH3Nq7ZtCbkUKNxwGG-52" value="- patient: Patient" style="text;strokeColor=none;fillColor=none;align=left;verticalAlign=top;spacingLeft=4;spacingRight=4;overflow=hidden;rotatable=0;points=[[0,0.5],[1,0.5]];portConstraint=eastwest;" vertex="1" parent="2FSQS6BrmJU-oLWJQJ1F-23">
          <mxGeometry y="208" width="290" height="26" as="geometry" />
        </mxCell>
        <mxCell id="MdLH3Nq7ZtCbkUKNxwGG-55" value="- doctor: Doctor" style="text;strokeColor=none;fillColor=none;align=left;verticalAlign=top;spacingLeft=4;spacingRight=4;overflow=hidden;rotatable=0;points=[[0,0.5],[1,0.5]];portConstraint=eastwest;" vertex="1" parent="2FSQS6BrmJU-oLWJQJ1F-23">
          <mxGeometry y="234" width="290" height="26" as="geometry" />
        </mxCell>
        <mxCell id="MdLH3Nq7ZtCbkUKNxwGG-56" value="- encryptKey: SecreteKey" style="text;strokeColor=none;fillColor=none;align=left;verticalAlign=top;spacingLeft=4;spacingRight=4;overflow=hidden;rotatable=0;points=[[0,0.5],[1,0.5]];portConstraint=eastwest;" vertex="1" parent="2FSQS6BrmJU-oLWJQJ1F-23">
          <mxGeometry y="260" width="290" height="26" as="geometry" />
        </mxCell>
        <mxCell id="2FSQS6BrmJU-oLWJQJ1F-25" value="" style="line;strokeWidth=1;fillColor=none;align=left;verticalAlign=middle;spacingTop=-1;spacingLeft=3;spacingRight=3;rotatable=0;labelPosition=right;points=[];portConstraint=eastwest;strokeColor=inherit;" parent="2FSQS6BrmJU-oLWJQJ1F-23" vertex="1">
          <mxGeometry y="286" width="290" height="8" as="geometry" />
        </mxCell>
        <mxCell id="2FSQS6BrmJU-oLWJQJ1F-26" value="+ validateConsultation(): boolean" style="text;strokeColor=none;fillColor=none;align=left;verticalAlign=top;spacingLeft=4;spacingRight=4;overflow=hidden;rotatable=0;points=[[0,0.5],[1,0.5]];portConstraint=eastwest;" parent="2FSQS6BrmJU-oLWJQJ1F-23" vertex="1">
          <mxGeometry y="294" width="290" height="26" as="geometry" />
        </mxCell>
        <mxCell id="MdLH3Nq7ZtCbkUKNxwGG-57" value="+ updateConsultation(): void" style="text;strokeColor=none;fillColor=none;align=left;verticalAlign=top;spacingLeft=4;spacingRight=4;overflow=hidden;rotatable=0;points=[[0,0.5],[1,0.5]];portConstraint=eastwest;" vertex="1" parent="2FSQS6BrmJU-oLWJQJ1F-23">
          <mxGeometry y="320" width="290" height="26" as="geometry" />
        </mxCell>
        <mxCell id="MdLH3Nq7ZtCbkUKNxwGG-58" value="+ clearAssets(): void" style="text;strokeColor=none;fillColor=none;align=left;verticalAlign=top;spacingLeft=4;spacingRight=4;overflow=hidden;rotatable=0;points=[[0,0.5],[1,0.5]];portConstraint=eastwest;" vertex="1" parent="2FSQS6BrmJU-oLWJQJ1F-23">
          <mxGeometry y="346" width="290" height="26" as="geometry" />
        </mxCell>
        <mxCell id="MdLH3Nq7ZtCbkUKNxwGG-59" value="+ getEncryptKey(): SecreteKey" style="text;strokeColor=none;fillColor=none;align=left;verticalAlign=top;spacingLeft=4;spacingRight=4;overflow=hidden;rotatable=0;points=[[0,0.5],[1,0.5]];portConstraint=eastwest;" vertex="1" parent="2FSQS6BrmJU-oLWJQJ1F-23">
          <mxGeometry y="372" width="290" height="26" as="geometry" />
        </mxCell>
        <mxCell id="MdLH3Nq7ZtCbkUKNxwGG-60" value="+ getNoteImages(): ArrayList&lt;File&gt;" style="text;strokeColor=none;fillColor=none;align=left;verticalAlign=top;spacingLeft=4;spacingRight=4;overflow=hidden;rotatable=0;points=[[0,0.5],[1,0.5]];portConstraint=eastwest;" vertex="1" parent="2FSQS6BrmJU-oLWJQJ1F-23">
          <mxGeometry y="398" width="290" height="26" as="geometry" />
        </mxCell>
        <mxCell id="MdLH3Nq7ZtCbkUKNxwGG-61" value="+ getNoteImageBytes(): List&lt;byte[]&gt;" style="text;strokeColor=none;fillColor=none;align=left;verticalAlign=top;spacingLeft=4;spacingRight=4;overflow=hidden;rotatable=0;points=[[0,0.5],[1,0.5]];portConstraint=eastwest;" vertex="1" parent="2FSQS6BrmJU-oLWJQJ1F-23">
          <mxGeometry y="424" width="290" height="26" as="geometry" />
        </mxCell>
        <mxCell id="MdLH3Nq7ZtCbkUKNxwGG-62" value="+ setNoteImages(ArrayList&lt;File&gt; noteImages): void" style="text;strokeColor=none;fillColor=none;align=left;verticalAlign=top;spacingLeft=4;spacingRight=4;overflow=hidden;rotatable=0;points=[[0,0.5],[1,0.5]];portConstraint=eastwest;" vertex="1" parent="2FSQS6BrmJU-oLWJQJ1F-23">
          <mxGeometry y="450" width="290" height="26" as="geometry" />
        </mxCell>
        <mxCell id="MdLH3Nq7ZtCbkUKNxwGG-63" value="+ deleteUnusedAssets(ArrayList&lt;File&gt;): void" style="text;strokeColor=none;fillColor=none;align=left;verticalAlign=top;spacingLeft=4;spacingRight=4;overflow=hidden;rotatable=0;points=[[0,0.5],[1,0.5]];portConstraint=eastwest;" vertex="1" parent="2FSQS6BrmJU-oLWJQJ1F-23">
          <mxGeometry y="476" width="290" height="26" as="geometry" />
        </mxCell>
        <mxCell id="MdLH3Nq7ZtCbkUKNxwGG-64" value="+ getCost(): float" style="text;strokeColor=none;fillColor=none;align=left;verticalAlign=top;spacingLeft=4;spacingRight=4;overflow=hidden;rotatable=0;points=[[0,0.5],[1,0.5]];portConstraint=eastwest;" vertex="1" parent="2FSQS6BrmJU-oLWJQJ1F-23">
          <mxGeometry y="502" width="290" height="26" as="geometry" />
        </mxCell>
        <mxCell id="MdLH3Nq7ZtCbkUKNxwGG-66" value="+ setCost(float): void" style="text;strokeColor=none;fillColor=none;align=left;verticalAlign=top;spacingLeft=4;spacingRight=4;overflow=hidden;rotatable=0;points=[[0,0.5],[1,0.5]];portConstraint=eastwest;" vertex="1" parent="2FSQS6BrmJU-oLWJQJ1F-23">
          <mxGeometry y="528" width="290" height="26" as="geometry" />
        </mxCell>
        <mxCell id="MdLH3Nq7ZtCbkUKNxwGG-65" value="+ getHourlyCost(): double" style="text;strokeColor=none;fillColor=none;align=left;verticalAlign=top;spacingLeft=4;spacingRight=4;overflow=hidden;rotatable=0;points=[[0,0.5],[1,0.5]];portConstraint=eastwest;" vertex="1" parent="2FSQS6BrmJU-oLWJQJ1F-23">
          <mxGeometry y="554" width="290" height="26" as="geometry" />
        </mxCell>
        <mxCell id="MdLH3Nq7ZtCbkUKNxwGG-69" value="+ getPatient(): Patient" style="text;strokeColor=none;fillColor=none;align=left;verticalAlign=top;spacingLeft=4;spacingRight=4;overflow=hidden;rotatable=0;points=[[0,0.5],[1,0.5]];portConstraint=eastwest;" vertex="1" parent="2FSQS6BrmJU-oLWJQJ1F-23">
          <mxGeometry y="580" width="290" height="26" as="geometry" />
        </mxCell>
        <mxCell id="MdLH3Nq7ZtCbkUKNxwGG-75" value="+ getDoctorName(): String" style="text;strokeColor=none;fillColor=none;align=left;verticalAlign=top;spacingLeft=4;spacingRight=4;overflow=hidden;rotatable=0;points=[[0,0.5],[1,0.5]];portConstraint=eastwest;" vertex="1" parent="2FSQS6BrmJU-oLWJQJ1F-23">
          <mxGeometry y="606" width="290" height="26" as="geometry" />
        </mxCell>
        <mxCell id="MdLH3Nq7ZtCbkUKNxwGG-82" value="+ getConsultationUID(): String" style="text;strokeColor=none;fillColor=none;align=left;verticalAlign=top;spacingLeft=4;spacingRight=4;overflow=hidden;rotatable=0;points=[[0,0.5],[1,0.5]];portConstraint=eastwest;" vertex="1" parent="2FSQS6BrmJU-oLWJQJ1F-23">
          <mxGeometry y="632" width="290" height="26" as="geometry" />
        </mxCell>
        <mxCell id="2FSQS6BrmJU-oLWJQJ1F-27" value="main.WestminsterSkinConsultationManager" style="swimlane;fontStyle=1;align=center;verticalAlign=top;childLayout=stackLayout;horizontal=1;startSize=26;horizontalStack=0;resizeParent=1;resizeParentMax=0;resizeLast=0;collapsible=1;marginBottom=0;" parent="1" vertex="1">
          <mxGeometry x="1120" y="270" width="310" height="502" as="geometry" />
        </mxCell>
        <mxCell id="2FSQS6BrmJU-oLWJQJ1F-28" value="- doctors: ArrayList&lt;Doctor&gt;" style="text;strokeColor=none;fillColor=none;align=left;verticalAlign=top;spacingLeft=4;spacingRight=4;overflow=hidden;rotatable=0;points=[[0,0.5],[1,0.5]];portConstraint=eastwest;" parent="2FSQS6BrmJU-oLWJQJ1F-27" vertex="1">
          <mxGeometry y="26" width="310" height="26" as="geometry" />
        </mxCell>
        <mxCell id="2FSQS6BrmJU-oLWJQJ1F-42" value="- consultations: ArrayList&lt;Consultation&gt;" style="text;strokeColor=none;fillColor=none;align=left;verticalAlign=top;spacingLeft=4;spacingRight=4;overflow=hidden;rotatable=0;points=[[0,0.5],[1,0.5]];portConstraint=eastwest;" parent="2FSQS6BrmJU-oLWJQJ1F-27" vertex="1">
          <mxGeometry y="52" width="310" height="26" as="geometry" />
        </mxCell>
        <mxCell id="MdLH3Nq7ZtCbkUKNxwGG-40" value="- patients: ArrayList&lt;Patients&gt;" style="text;strokeColor=none;fillColor=none;align=left;verticalAlign=top;spacingLeft=4;spacingRight=4;overflow=hidden;rotatable=0;points=[[0,0.5],[1,0.5]];portConstraint=eastwest;" vertex="1" parent="2FSQS6BrmJU-oLWJQJ1F-27">
          <mxGeometry y="78" width="310" height="26" as="geometry" />
        </mxCell>
        <mxCell id="MdLH3Nq7ZtCbkUKNxwGG-41" value="- consultationIdIndex: int" style="text;strokeColor=none;fillColor=none;align=left;verticalAlign=top;spacingLeft=4;spacingRight=4;overflow=hidden;rotatable=0;points=[[0,0.5],[1,0.5]];portConstraint=eastwest;" vertex="1" parent="2FSQS6BrmJU-oLWJQJ1F-27">
          <mxGeometry y="104" width="310" height="26" as="geometry" />
        </mxCell>
        <mxCell id="2FSQS6BrmJU-oLWJQJ1F-13" value="" style="line;strokeWidth=1;fillColor=none;align=left;verticalAlign=middle;spacingTop=-1;spacingLeft=3;spacingRight=3;rotatable=0;labelPosition=right;points=[];portConstraint=eastwest;strokeColor=inherit;" parent="2FSQS6BrmJU-oLWJQJ1F-27" vertex="1">
          <mxGeometry y="130" width="310" height="8" as="geometry" />
        </mxCell>
        <mxCell id="2FSQS6BrmJU-oLWJQJ1F-14" value="- printMainMenu(): void" style="text;strokeColor=none;fillColor=none;align=left;verticalAlign=top;spacingLeft=4;spacingRight=4;overflow=hidden;rotatable=0;points=[[0,0.5],[1,0.5]];portConstraint=eastwest;" parent="2FSQS6BrmJU-oLWJQJ1F-27" vertex="1">
          <mxGeometry y="138" width="310" height="26" as="geometry" />
        </mxCell>
        <mxCell id="MdLH3Nq7ZtCbkUKNxwGG-11" value="- promptPerson(): String[]" style="text;strokeColor=none;fillColor=none;align=left;verticalAlign=top;spacingLeft=4;spacingRight=4;overflow=hidden;rotatable=0;points=[[0,0.5],[1,0.5]];portConstraint=eastwest;" vertex="1" parent="2FSQS6BrmJU-oLWJQJ1F-27">
          <mxGeometry y="164" width="310" height="26" as="geometry" />
        </mxCell>
        <mxCell id="MdLH3Nq7ZtCbkUKNxwGG-1" value="+ mainMenuInputHandler(String): boolean" style="text;strokeColor=none;fillColor=none;align=left;verticalAlign=top;spacingLeft=4;spacingRight=4;overflow=hidden;rotatable=0;points=[[0,0.5],[1,0.5]];portConstraint=eastwest;" vertex="1" parent="2FSQS6BrmJU-oLWJQJ1F-27">
          <mxGeometry y="190" width="310" height="26" as="geometry" />
        </mxCell>
        <mxCell id="MdLH3Nq7ZtCbkUKNxwGG-12" value="+ findDoctor(): String[]" style="text;strokeColor=none;fillColor=none;align=left;verticalAlign=top;spacingLeft=4;spacingRight=4;overflow=hidden;rotatable=0;points=[[0,0.5],[1,0.5]];portConstraint=eastwest;" vertex="1" parent="2FSQS6BrmJU-oLWJQJ1F-27">
          <mxGeometry y="216" width="310" height="26" as="geometry" />
        </mxCell>
        <mxCell id="MdLH3Nq7ZtCbkUKNxwGG-13" value="+ getAvailableDoctor(String, LocalDateTime): String[]" style="text;strokeColor=none;fillColor=none;align=left;verticalAlign=top;spacingLeft=4;spacingRight=4;overflow=hidden;rotatable=0;points=[[0,0.5],[1,0.5]];portConstraint=eastwest;" vertex="1" parent="2FSQS6BrmJU-oLWJQJ1F-27">
          <mxGeometry y="242" width="310" height="26" as="geometry" />
        </mxCell>
        <mxCell id="MdLH3Nq7ZtCbkUKNxwGG-42" value="+ getDoctors(): ArrayList&lt;Doctor&gt;" style="text;strokeColor=none;fillColor=none;align=left;verticalAlign=top;spacingLeft=4;spacingRight=4;overflow=hidden;rotatable=0;points=[[0,0.5],[1,0.5]];portConstraint=eastwest;" vertex="1" parent="2FSQS6BrmJU-oLWJQJ1F-27">
          <mxGeometry y="268" width="310" height="26" as="geometry" />
        </mxCell>
        <mxCell id="MdLH3Nq7ZtCbkUKNxwGG-43" value="+ setDoctor(ArrayList&lt;Doctor&gt;): void" style="text;strokeColor=none;fillColor=none;align=left;verticalAlign=top;spacingLeft=4;spacingRight=4;overflow=hidden;rotatable=0;points=[[0,0.5],[1,0.5]];portConstraint=eastwest;" vertex="1" parent="2FSQS6BrmJU-oLWJQJ1F-27">
          <mxGeometry y="294" width="310" height="26" as="geometry" />
        </mxCell>
        <mxCell id="MdLH3Nq7ZtCbkUKNxwGG-44" value="+ getConsultations(): ArrayList&lt;Consultations&gt;" style="text;strokeColor=none;fillColor=none;align=left;verticalAlign=top;spacingLeft=4;spacingRight=4;overflow=hidden;rotatable=0;points=[[0,0.5],[1,0.5]];portConstraint=eastwest;" vertex="1" parent="2FSQS6BrmJU-oLWJQJ1F-27">
          <mxGeometry y="320" width="310" height="26" as="geometry" />
        </mxCell>
        <mxCell id="MdLH3Nq7ZtCbkUKNxwGG-45" value="+ setConsultations(ArrayList&lt;Consultation&gt;): void" style="text;strokeColor=none;fillColor=none;align=left;verticalAlign=top;spacingLeft=4;spacingRight=4;overflow=hidden;rotatable=0;points=[[0,0.5],[1,0.5]];portConstraint=eastwest;" vertex="1" parent="2FSQS6BrmJU-oLWJQJ1F-27">
          <mxGeometry y="346" width="310" height="26" as="geometry" />
        </mxCell>
        <mxCell id="MdLH3Nq7ZtCbkUKNxwGG-46" value="+ getPatients(): ArrayList&lt;Patients&gt;" style="text;strokeColor=none;fillColor=none;align=left;verticalAlign=top;spacingLeft=4;spacingRight=4;overflow=hidden;rotatable=0;points=[[0,0.5],[1,0.5]];portConstraint=eastwest;" vertex="1" parent="2FSQS6BrmJU-oLWJQJ1F-27">
          <mxGeometry y="372" width="310" height="26" as="geometry" />
        </mxCell>
        <mxCell id="MdLH3Nq7ZtCbkUKNxwGG-47" value="+ setPatients(): void" style="text;strokeColor=none;fillColor=none;align=left;verticalAlign=top;spacingLeft=4;spacingRight=4;overflow=hidden;rotatable=0;points=[[0,0.5],[1,0.5]];portConstraint=eastwest;" vertex="1" parent="2FSQS6BrmJU-oLWJQJ1F-27">
          <mxGeometry y="398" width="310" height="26" as="geometry" />
        </mxCell>
        <mxCell id="MdLH3Nq7ZtCbkUKNxwGG-48" value="+ getConsultationIdIndex(): int" style="text;strokeColor=none;fillColor=none;align=left;verticalAlign=top;spacingLeft=4;spacingRight=4;overflow=hidden;rotatable=0;points=[[0,0.5],[1,0.5]];portConstraint=eastwest;" vertex="1" parent="2FSQS6BrmJU-oLWJQJ1F-27">
          <mxGeometry y="424" width="310" height="26" as="geometry" />
        </mxCell>
        <mxCell id="MdLH3Nq7ZtCbkUKNxwGG-14" value="+ start(): void" style="text;strokeColor=none;fillColor=none;align=left;verticalAlign=top;spacingLeft=4;spacingRight=4;overflow=hidden;rotatable=0;points=[[0,0.5],[1,0.5]];portConstraint=eastwest;" vertex="1" parent="2FSQS6BrmJU-oLWJQJ1F-27">
          <mxGeometry y="450" width="310" height="26" as="geometry" />
        </mxCell>
        <mxCell id="MdLH3Nq7ZtCbkUKNxwGG-15" value="+ main(): void" style="text;strokeColor=none;fillColor=none;align=left;verticalAlign=top;spacingLeft=4;spacingRight=4;overflow=hidden;rotatable=0;points=[[0,0.5],[1,0.5]];portConstraint=eastwest;fontStyle=4" vertex="1" parent="2FSQS6BrmJU-oLWJQJ1F-27">
          <mxGeometry y="476" width="310" height="26" as="geometry" />
        </mxCell>
        <mxCell id="2FSQS6BrmJU-oLWJQJ1F-31" value="&lt;&lt;interface&gt;&gt;&#xa;main.SkinConsultationManager" style="swimlane;fontStyle=1;align=center;verticalAlign=top;childLayout=stackLayout;horizontal=1;startSize=40;horizontalStack=0;resizeParent=1;resizeParentMax=0;resizeLast=0;collapsible=1;marginBottom=0;" parent="1" vertex="1">
          <mxGeometry x="1165" y="10" width="220" height="196" as="geometry" />
        </mxCell>
        <mxCell id="2FSQS6BrmJU-oLWJQJ1F-34" value="+ addDoctor(): void" style="text;strokeColor=none;fillColor=none;align=left;verticalAlign=top;spacingLeft=4;spacingRight=4;overflow=hidden;rotatable=0;points=[[0,0.5],[1,0.5]];portConstraint=eastwest;" parent="2FSQS6BrmJU-oLWJQJ1F-31" vertex="1">
          <mxGeometry y="40" width="220" height="26" as="geometry" />
        </mxCell>
        <mxCell id="2FSQS6BrmJU-oLWJQJ1F-36" value="+ removeDoctor(): void" style="text;strokeColor=none;fillColor=none;align=left;verticalAlign=top;spacingLeft=4;spacingRight=4;overflow=hidden;rotatable=0;points=[[0,0.5],[1,0.5]];portConstraint=eastwest;" parent="2FSQS6BrmJU-oLWJQJ1F-31" vertex="1">
          <mxGeometry y="66" width="220" height="26" as="geometry" />
        </mxCell>
        <mxCell id="2FSQS6BrmJU-oLWJQJ1F-40" value="+ viewDoctors(): void" style="text;strokeColor=none;fillColor=none;align=left;verticalAlign=top;spacingLeft=4;spacingRight=4;overflow=hidden;rotatable=0;points=[[0,0.5],[1,0.5]];portConstraint=eastwest;" parent="2FSQS6BrmJU-oLWJQJ1F-31" vertex="1">
          <mxGeometry y="92" width="220" height="26" as="geometry" />
        </mxCell>
        <mxCell id="2FSQS6BrmJU-oLWJQJ1F-37" value="+ addConsultation(): void" style="text;strokeColor=none;fillColor=none;align=left;verticalAlign=top;spacingLeft=4;spacingRight=4;overflow=hidden;rotatable=0;points=[[0,0.5],[1,0.5]];portConstraint=eastwest;" parent="2FSQS6BrmJU-oLWJQJ1F-31" vertex="1">
          <mxGeometry y="118" width="220" height="26" as="geometry" />
        </mxCell>
        <mxCell id="2FSQS6BrmJU-oLWJQJ1F-38" value="+ updateConsultation(): void" style="text;strokeColor=none;fillColor=none;align=left;verticalAlign=top;spacingLeft=4;spacingRight=4;overflow=hidden;rotatable=0;points=[[0,0.5],[1,0.5]];portConstraint=eastwest;" parent="2FSQS6BrmJU-oLWJQJ1F-31" vertex="1">
          <mxGeometry y="144" width="220" height="26" as="geometry" />
        </mxCell>
        <mxCell id="2FSQS6BrmJU-oLWJQJ1F-39" value="+ cancelConsultation(): void" style="text;strokeColor=none;fillColor=none;align=left;verticalAlign=top;spacingLeft=4;spacingRight=4;overflow=hidden;rotatable=0;points=[[0,0.5],[1,0.5]];portConstraint=eastwest;" parent="2FSQS6BrmJU-oLWJQJ1F-31" vertex="1">
          <mxGeometry y="170" width="220" height="26" as="geometry" />
        </mxCell>
        <mxCell id="MdLH3Nq7ZtCbkUKNxwGG-83" value="Patient" style="swimlane;fontStyle=1;align=center;verticalAlign=top;childLayout=stackLayout;horizontal=1;startSize=26;horizontalStack=0;resizeParent=1;resizeParentMax=0;resizeLast=0;collapsible=1;marginBottom=0;" vertex="1" parent="1">
          <mxGeometry x="545" y="870" width="340" height="164" as="geometry">
            <mxRectangle x="440" y="538" width="110" height="30" as="alternateBounds" />
          </mxGeometry>
        </mxCell>
        <mxCell id="MdLH3Nq7ZtCbkUKNxwGG-84" value="+ tableColumns: String[]" style="text;strokeColor=none;fillColor=none;align=left;verticalAlign=top;spacingLeft=4;spacingRight=4;overflow=hidden;rotatable=0;points=[[0,0.5],[1,0.5]];portConstraint=eastwest;fontStyle=4" vertex="1" parent="MdLH3Nq7ZtCbkUKNxwGG-83">
          <mxGeometry y="26" width="340" height="26" as="geometry" />
        </mxCell>
        <mxCell id="MdLH3Nq7ZtCbkUKNxwGG-85" value="+ tableFieldNames: String[]" style="text;strokeColor=none;fillColor=none;align=left;verticalAlign=top;spacingLeft=4;spacingRight=4;overflow=hidden;rotatable=0;points=[[0,0.5],[1,0.5]];portConstraint=eastwest;fontStyle=4" vertex="1" parent="MdLH3Nq7ZtCbkUKNxwGG-83">
          <mxGeometry y="52" width="340" height="26" as="geometry" />
        </mxCell>
        <mxCell id="MdLH3Nq7ZtCbkUKNxwGG-86" value="- UID: String" style="text;strokeColor=none;fillColor=none;align=left;verticalAlign=top;spacingLeft=4;spacingRight=4;overflow=hidden;rotatable=0;points=[[0,0.5],[1,0.5]];portConstraint=eastwest;" vertex="1" parent="MdLH3Nq7ZtCbkUKNxwGG-83">
          <mxGeometry y="78" width="340" height="26" as="geometry" />
        </mxCell>
        <mxCell id="MdLH3Nq7ZtCbkUKNxwGG-94" value="" style="line;strokeWidth=1;fillColor=none;align=left;verticalAlign=middle;spacingTop=-1;spacingLeft=3;spacingRight=3;rotatable=0;labelPosition=right;points=[];portConstraint=eastwest;strokeColor=inherit;" vertex="1" parent="MdLH3Nq7ZtCbkUKNxwGG-83">
          <mxGeometry y="104" width="340" height="8" as="geometry" />
        </mxCell>
        <mxCell id="MdLH3Nq7ZtCbkUKNxwGG-95" value="+ getUID(): String" style="text;strokeColor=none;fillColor=none;align=left;verticalAlign=top;spacingLeft=4;spacingRight=4;overflow=hidden;rotatable=0;points=[[0,0.5],[1,0.5]];portConstraint=eastwest;" vertex="1" parent="MdLH3Nq7ZtCbkUKNxwGG-83">
          <mxGeometry y="112" width="340" height="26" as="geometry" />
        </mxCell>
        <mxCell id="MdLH3Nq7ZtCbkUKNxwGG-96" value="+ generateUID(): String" style="text;strokeColor=none;fillColor=none;align=left;verticalAlign=top;spacingLeft=4;spacingRight=4;overflow=hidden;rotatable=0;points=[[0,0.5],[1,0.5]];portConstraint=eastwest;" vertex="1" parent="MdLH3Nq7ZtCbkUKNxwGG-83">
          <mxGeometry y="138" width="340" height="26" as="geometry" />
        </mxCell>
        <mxCell id="MdLH3Nq7ZtCbkUKNxwGG-122" value="Extends" style="endArrow=block;endSize=16;endFill=0;html=1;rounded=0;dashed=1;" edge="1" parent="1" target="2FSQS6BrmJU-oLWJQJ1F-1">
          <mxGeometry width="160" relative="1" as="geometry">
            <mxPoint x="550" y="400" as="sourcePoint" />
            <mxPoint x="710" y="400" as="targetPoint" />
          </mxGeometry>
        </mxCell>
        <mxCell id="MdLH3Nq7ZtCbkUKNxwGG-123" value="Extends" style="endArrow=block;endSize=16;endFill=0;html=1;rounded=0;dashed=1;exitX=0;exitY=0.5;exitDx=0;exitDy=0;entryX=1.046;entryY=0.01;entryDx=0;entryDy=0;entryPerimeter=0;" edge="1" parent="1" source="MdLH3Nq7ZtCbkUKNxwGG-86" target="MdLH3Nq7ZtCbkUKNxwGG-19">
          <mxGeometry width="160" relative="1" as="geometry">
            <mxPoint x="550" y="295.11" as="sourcePoint" />
            <mxPoint x="310.0000000000002" y="270.0023076923077" as="targetPoint" />
          </mxGeometry>
        </mxCell>
        <mxCell id="MdLH3Nq7ZtCbkUKNxwGG-124" value="" style="endArrow=block;dashed=1;endFill=0;endSize=12;html=1;rounded=0;exitX=0.5;exitY=0;exitDx=0;exitDy=0;" edge="1" parent="1" source="2FSQS6BrmJU-oLWJQJ1F-27" target="2FSQS6BrmJU-oLWJQJ1F-31">
          <mxGeometry width="160" relative="1" as="geometry">
            <mxPoint x="1110" y="260" as="sourcePoint" />
            <mxPoint x="1270" y="260" as="targetPoint" />
          </mxGeometry>
        </mxCell>
        <mxCell id="MdLH3Nq7ZtCbkUKNxwGG-126" value="" style="endArrow=diamondThin;endFill=0;endSize=24;html=1;rounded=0;exitX=1;exitY=0.5;exitDx=0;exitDy=0;entryX=0;entryY=0.5;entryDx=0;entryDy=0;" edge="1" parent="1" source="2FSQS6BrmJU-oLWJQJ1F-9" target="2FSQS6BrmJU-oLWJQJ1F-28">
          <mxGeometry width="160" relative="1" as="geometry">
            <mxPoint x="884" y="585" as="sourcePoint" />
            <mxPoint x="1044" y="585" as="targetPoint" />
          </mxGeometry>
        </mxCell>
        <mxCell id="MdLH3Nq7ZtCbkUKNxwGG-127" value="" style="endArrow=diamondThin;endFill=0;endSize=24;html=1;rounded=0;exitX=0.5;exitY=0;exitDx=0;exitDy=0;entryX=0.469;entryY=1.126;entryDx=0;entryDy=0;entryPerimeter=0;" edge="1" parent="1" source="2FSQS6BrmJU-oLWJQJ1F-23" target="MdLH3Nq7ZtCbkUKNxwGG-15">
          <mxGeometry width="160" relative="1" as="geometry">
            <mxPoint x="980.0000000000005" y="908.4499999999998" as="sourcePoint" />
            <mxPoint x="1217.3600000000001" y="522.0000000000005" as="targetPoint" />
          </mxGeometry>
        </mxCell>
        <mxCell id="MdLH3Nq7ZtCbkUKNxwGG-128" value="consults" style="endArrow=none;html=1;edgeStyle=orthogonalEdgeStyle;rounded=0;exitX=1;exitY=0.042;exitDx=0;exitDy=0;exitPerimeter=0;entryX=0;entryY=0.5;entryDx=0;entryDy=0;" edge="1" parent="1" source="MdLH3Nq7ZtCbkUKNxwGG-35" target="5MHqHmO73GeBWy-8VEGf-1">
          <mxGeometry relative="1" as="geometry">
            <mxPoint x="1030" y="580" as="sourcePoint" />
            <mxPoint x="1190" y="580" as="targetPoint" />
          </mxGeometry>
        </mxCell>
        <mxCell id="MdLH3Nq7ZtCbkUKNxwGG-129" value="1..1" style="edgeLabel;resizable=0;html=1;align=left;verticalAlign=bottom;" connectable="0" vertex="1" parent="MdLH3Nq7ZtCbkUKNxwGG-128">
          <mxGeometry x="-1" relative="1" as="geometry" />
        </mxCell>
        <mxCell id="MdLH3Nq7ZtCbkUKNxwGG-130" value="0...*" style="edgeLabel;resizable=0;html=1;align=right;verticalAlign=bottom;" connectable="0" vertex="1" parent="MdLH3Nq7ZtCbkUKNxwGG-128">
          <mxGeometry x="1" relative="1" as="geometry" />
        </mxCell>
        <mxCell id="MdLH3Nq7ZtCbkUKNxwGG-132" value="0..10" style="text;html=1;strokeColor=none;fillColor=none;align=center;verticalAlign=middle;whiteSpace=wrap;rounded=0;" vertex="1" parent="1">
          <mxGeometry x="880" y="320" width="60" height="30" as="geometry" />
        </mxCell>
        <mxCell id="MdLH3Nq7ZtCbkUKNxwGG-133" value="0..1" style="text;html=1;strokeColor=none;fillColor=none;align=center;verticalAlign=middle;whiteSpace=wrap;rounded=0;" vertex="1" parent="1">
          <mxGeometry x="1060" y="280" width="60" height="30" as="geometry" />
        </mxCell>
        <mxCell id="MdLH3Nq7ZtCbkUKNxwGG-135" value="books" style="endArrow=none;html=1;edgeStyle=orthogonalEdgeStyle;rounded=0;exitX=1;exitY=0.5;exitDx=0;exitDy=0;entryX=0;entryY=0.5;entryDx=0;entryDy=0;" edge="1" parent="1" source="MdLH3Nq7ZtCbkUKNxwGG-84" target="MdLH3Nq7ZtCbkUKNxwGG-56">
          <mxGeometry relative="1" as="geometry">
            <mxPoint x="870" y="950.0020000000002" as="sourcePoint" />
            <mxPoint x="1120" y="1309.91" as="targetPoint" />
            <Array as="points">
              <mxPoint x="980" y="909" />
              <mxPoint x="980" y="1183" />
            </Array>
          </mxGeometry>
        </mxCell>
        <mxCell id="MdLH3Nq7ZtCbkUKNxwGG-136" value="1..1" style="edgeLabel;resizable=0;html=1;align=left;verticalAlign=bottom;" connectable="0" vertex="1" parent="MdLH3Nq7ZtCbkUKNxwGG-135">
          <mxGeometry x="-1" relative="1" as="geometry" />
        </mxCell>
        <mxCell id="MdLH3Nq7ZtCbkUKNxwGG-137" value="0...*" style="edgeLabel;resizable=0;html=1;align=right;verticalAlign=bottom;" connectable="0" vertex="1" parent="MdLH3Nq7ZtCbkUKNxwGG-135">
          <mxGeometry x="1" relative="1" as="geometry" />
        </mxCell>
        <mxCell id="MdLH3Nq7ZtCbkUKNxwGG-138" value="Text" style="edgeLabel;html=1;align=center;verticalAlign=middle;resizable=0;points=[];" vertex="1" connectable="0" parent="MdLH3Nq7ZtCbkUKNxwGG-135">
          <mxGeometry x="0.7156" y="3" relative="1" as="geometry">
            <mxPoint x="-1" as="offset" />
          </mxGeometry>
        </mxCell>
      </root>
    </mxGraphModel>
  </diagram>
  <diagram name="Copy of class diagram -v2" id="uQR8v2hmMcj43wV8H507">
    <mxGraphModel dx="1434" dy="757" grid="1" gridSize="10" guides="1" tooltips="1" connect="1" arrows="1" fold="1" page="1" pageScale="1" pageWidth="827" pageHeight="1169" math="0" shadow="0">
      <root>
        <mxCell id="FH3-HNGUuqk2ekZMtS2C-0" />
        <mxCell id="FH3-HNGUuqk2ekZMtS2C-1" parent="FH3-HNGUuqk2ekZMtS2C-0" />
        <mxCell id="FH3-HNGUuqk2ekZMtS2C-2" value="Person" style="swimlane;fontStyle=1;align=center;verticalAlign=top;childLayout=stackLayout;horizontal=1;startSize=26;horizontalStack=0;resizeParent=1;resizeParentMax=0;resizeLast=0;collapsible=1;marginBottom=0;" vertex="1" parent="FH3-HNGUuqk2ekZMtS2C-1">
          <mxGeometry x="140" y="180" width="170" height="372" as="geometry" />
        </mxCell>
        <mxCell id="FH3-HNGUuqk2ekZMtS2C-3" value="- name: String" style="text;strokeColor=none;fillColor=none;align=left;verticalAlign=top;spacingLeft=4;spacingRight=4;overflow=hidden;rotatable=0;points=[[0,0.5],[1,0.5]];portConstraint=eastwest;" vertex="1" parent="FH3-HNGUuqk2ekZMtS2C-2">
          <mxGeometry y="26" width="170" height="26" as="geometry" />
        </mxCell>
        <mxCell id="FH3-HNGUuqk2ekZMtS2C-4" value="- surname: String" style="text;strokeColor=none;fillColor=none;align=left;verticalAlign=top;spacingLeft=4;spacingRight=4;overflow=hidden;rotatable=0;points=[[0,0.5],[1,0.5]];portConstraint=eastwest;" vertex="1" parent="FH3-HNGUuqk2ekZMtS2C-2">
          <mxGeometry y="52" width="170" height="26" as="geometry" />
        </mxCell>
        <mxCell id="FH3-HNGUuqk2ekZMtS2C-5" value="- dob: LocalDate" style="text;strokeColor=none;fillColor=none;align=left;verticalAlign=top;spacingLeft=4;spacingRight=4;overflow=hidden;rotatable=0;points=[[0,0.5],[1,0.5]];portConstraint=eastwest;" vertex="1" parent="FH3-HNGUuqk2ekZMtS2C-2">
          <mxGeometry y="78" width="170" height="26" as="geometry" />
        </mxCell>
        <mxCell id="FH3-HNGUuqk2ekZMtS2C-6" value="- contactNo: String" style="text;strokeColor=none;fillColor=none;align=left;verticalAlign=top;spacingLeft=4;spacingRight=4;overflow=hidden;rotatable=0;points=[[0,0.5],[1,0.5]];portConstraint=eastwest;" vertex="1" parent="FH3-HNGUuqk2ekZMtS2C-2">
          <mxGeometry y="104" width="170" height="26" as="geometry" />
        </mxCell>
        <mxCell id="FH3-HNGUuqk2ekZMtS2C-7" value="" style="line;strokeWidth=1;fillColor=none;align=left;verticalAlign=middle;spacingTop=-1;spacingLeft=3;spacingRight=3;rotatable=0;labelPosition=right;points=[];portConstraint=eastwest;strokeColor=inherit;" vertex="1" parent="FH3-HNGUuqk2ekZMtS2C-2">
          <mxGeometry y="130" width="170" height="8" as="geometry" />
        </mxCell>
        <mxCell id="FH3-HNGUuqk2ekZMtS2C-8" value="+ getFullName(): String" style="text;strokeColor=none;fillColor=none;align=left;verticalAlign=top;spacingLeft=4;spacingRight=4;overflow=hidden;rotatable=0;points=[[0,0.5],[1,0.5]];portConstraint=eastwest;" vertex="1" parent="FH3-HNGUuqk2ekZMtS2C-2">
          <mxGeometry y="138" width="170" height="26" as="geometry" />
        </mxCell>
        <mxCell id="FH3-HNGUuqk2ekZMtS2C-9" value="+ getName(): String" style="text;strokeColor=none;fillColor=none;align=left;verticalAlign=top;spacingLeft=4;spacingRight=4;overflow=hidden;rotatable=0;points=[[0,0.5],[1,0.5]];portConstraint=eastwest;" vertex="1" parent="FH3-HNGUuqk2ekZMtS2C-2">
          <mxGeometry y="164" width="170" height="26" as="geometry" />
        </mxCell>
        <mxCell id="FH3-HNGUuqk2ekZMtS2C-10" value="+ setName(String): void" style="text;strokeColor=none;fillColor=none;align=left;verticalAlign=top;spacingLeft=4;spacingRight=4;overflow=hidden;rotatable=0;points=[[0,0.5],[1,0.5]];portConstraint=eastwest;" vertex="1" parent="FH3-HNGUuqk2ekZMtS2C-2">
          <mxGeometry y="190" width="170" height="26" as="geometry" />
        </mxCell>
        <mxCell id="FH3-HNGUuqk2ekZMtS2C-11" value="+ getSurname(): String" style="text;strokeColor=none;fillColor=none;align=left;verticalAlign=top;spacingLeft=4;spacingRight=4;overflow=hidden;rotatable=0;points=[[0,0.5],[1,0.5]];portConstraint=eastwest;" vertex="1" parent="FH3-HNGUuqk2ekZMtS2C-2">
          <mxGeometry y="216" width="170" height="26" as="geometry" />
        </mxCell>
        <mxCell id="FH3-HNGUuqk2ekZMtS2C-12" value="+ setSurname(String): void" style="text;strokeColor=none;fillColor=none;align=left;verticalAlign=top;spacingLeft=4;spacingRight=4;overflow=hidden;rotatable=0;points=[[0,0.5],[1,0.5]];portConstraint=eastwest;" vertex="1" parent="FH3-HNGUuqk2ekZMtS2C-2">
          <mxGeometry y="242" width="170" height="26" as="geometry" />
        </mxCell>
        <mxCell id="FH3-HNGUuqk2ekZMtS2C-13" value="+ getDob(): String" style="text;strokeColor=none;fillColor=none;align=left;verticalAlign=top;spacingLeft=4;spacingRight=4;overflow=hidden;rotatable=0;points=[[0,0.5],[1,0.5]];portConstraint=eastwest;" vertex="1" parent="FH3-HNGUuqk2ekZMtS2C-2">
          <mxGeometry y="268" width="170" height="26" as="geometry" />
        </mxCell>
        <mxCell id="FH3-HNGUuqk2ekZMtS2C-14" value="+ setDob(String): void" style="text;strokeColor=none;fillColor=none;align=left;verticalAlign=top;spacingLeft=4;spacingRight=4;overflow=hidden;rotatable=0;points=[[0,0.5],[1,0.5]];portConstraint=eastwest;" vertex="1" parent="FH3-HNGUuqk2ekZMtS2C-2">
          <mxGeometry y="294" width="170" height="26" as="geometry" />
        </mxCell>
        <mxCell id="FH3-HNGUuqk2ekZMtS2C-15" value="+ getContactNo(): String" style="text;strokeColor=none;fillColor=none;align=left;verticalAlign=top;spacingLeft=4;spacingRight=4;overflow=hidden;rotatable=0;points=[[0,0.5],[1,0.5]];portConstraint=eastwest;" vertex="1" parent="FH3-HNGUuqk2ekZMtS2C-2">
          <mxGeometry y="320" width="170" height="26" as="geometry" />
        </mxCell>
        <mxCell id="FH3-HNGUuqk2ekZMtS2C-16" value="+ setContactNo(String): void" style="text;strokeColor=none;fillColor=none;align=left;verticalAlign=top;spacingLeft=4;spacingRight=4;overflow=hidden;rotatable=0;points=[[0,0.5],[1,0.5]];portConstraint=eastwest;" vertex="1" parent="FH3-HNGUuqk2ekZMtS2C-2">
          <mxGeometry y="346" width="170" height="26" as="geometry" />
        </mxCell>
        <mxCell id="FH3-HNGUuqk2ekZMtS2C-17" value="Doctor" style="swimlane;fontStyle=1;align=center;verticalAlign=top;childLayout=stackLayout;horizontal=1;startSize=26;horizontalStack=0;resizeParent=1;resizeParentMax=0;resizeLast=0;collapsible=1;marginBottom=0;" vertex="1" parent="FH3-HNGUuqk2ekZMtS2C-1">
          <mxGeometry x="550" y="320" width="330" height="476" as="geometry" />
        </mxCell>
        <mxCell id="FH3-HNGUuqk2ekZMtS2C-18" value="+ tableColumns: String[]" style="text;strokeColor=none;fillColor=none;align=left;verticalAlign=top;spacingLeft=4;spacingRight=4;overflow=hidden;rotatable=0;points=[[0,0.5],[1,0.5]];portConstraint=eastwest;fontStyle=4" vertex="1" parent="FH3-HNGUuqk2ekZMtS2C-17">
          <mxGeometry y="26" width="330" height="26" as="geometry" />
        </mxCell>
        <mxCell id="FH3-HNGUuqk2ekZMtS2C-19" value="+ tableFieldNames: String[]" style="text;strokeColor=none;fillColor=none;align=left;verticalAlign=top;spacingLeft=4;spacingRight=4;overflow=hidden;rotatable=0;points=[[0,0.5],[1,0.5]];portConstraint=eastwest;fontStyle=4" vertex="1" parent="FH3-HNGUuqk2ekZMtS2C-17">
          <mxGeometry y="52" width="330" height="26" as="geometry" />
        </mxCell>
        <mxCell id="FH3-HNGUuqk2ekZMtS2C-20" value="- medicalLicenseNo: String" style="text;strokeColor=none;fillColor=none;align=left;verticalAlign=top;spacingLeft=4;spacingRight=4;overflow=hidden;rotatable=0;points=[[0,0.5],[1,0.5]];portConstraint=eastwest;" vertex="1" parent="FH3-HNGUuqk2ekZMtS2C-17">
          <mxGeometry y="78" width="330" height="26" as="geometry" />
        </mxCell>
        <mxCell id="FH3-HNGUuqk2ekZMtS2C-21" value="- specialisation: String" style="text;strokeColor=none;fillColor=none;align=left;verticalAlign=top;spacingLeft=4;spacingRight=4;overflow=hidden;rotatable=0;points=[[0,0.5],[1,0.5]];portConstraint=eastwest;" vertex="1" parent="FH3-HNGUuqk2ekZMtS2C-17">
          <mxGeometry y="104" width="330" height="26" as="geometry" />
        </mxCell>
        <mxCell id="FH3-HNGUuqk2ekZMtS2C-22" value="- consultations: TreeSet&lt;Consultation&gt;" style="text;strokeColor=none;fillColor=none;align=left;verticalAlign=top;spacingLeft=4;spacingRight=4;overflow=hidden;rotatable=0;points=[[0,0.5],[1,0.5]];portConstraint=eastwest;" vertex="1" parent="FH3-HNGUuqk2ekZMtS2C-17">
          <mxGeometry y="130" width="330" height="26" as="geometry" />
        </mxCell>
        <mxCell id="FH3-HNGUuqk2ekZMtS2C-23" value="- consultationStart: LocalTime" style="text;strokeColor=none;fillColor=none;align=left;verticalAlign=top;spacingLeft=4;spacingRight=4;overflow=hidden;rotatable=0;points=[[0,0.5],[1,0.5]];portConstraint=eastwest;" vertex="1" parent="FH3-HNGUuqk2ekZMtS2C-17">
          <mxGeometry y="156" width="330" height="26" as="geometry" />
        </mxCell>
        <mxCell id="FH3-HNGUuqk2ekZMtS2C-24" value="- consultationEnd: LocalTime" style="text;strokeColor=none;fillColor=none;align=left;verticalAlign=top;spacingLeft=4;spacingRight=4;overflow=hidden;rotatable=0;points=[[0,0.5],[1,0.5]];portConstraint=eastwest;" vertex="1" parent="FH3-HNGUuqk2ekZMtS2C-17">
          <mxGeometry y="182" width="330" height="26" as="geometry" />
        </mxCell>
        <mxCell id="FH3-HNGUuqk2ekZMtS2C-25" value="" style="line;strokeWidth=1;fillColor=none;align=left;verticalAlign=middle;spacingTop=-1;spacingLeft=3;spacingRight=3;rotatable=0;labelPosition=right;points=[];portConstraint=eastwest;strokeColor=inherit;" vertex="1" parent="FH3-HNGUuqk2ekZMtS2C-17">
          <mxGeometry y="208" width="330" height="8" as="geometry" />
        </mxCell>
        <mxCell id="FH3-HNGUuqk2ekZMtS2C-26" value="+ addConsultation(): void" style="text;strokeColor=none;fillColor=none;align=left;verticalAlign=top;spacingLeft=4;spacingRight=4;overflow=hidden;rotatable=0;points=[[0,0.5],[1,0.5]];portConstraint=eastwest;" vertex="1" parent="FH3-HNGUuqk2ekZMtS2C-17">
          <mxGeometry y="216" width="330" height="26" as="geometry" />
        </mxCell>
        <mxCell id="FH3-HNGUuqk2ekZMtS2C-27" value="+ findConsultationsByDate(LocalDate): List&lt;Consultation&gt;" style="text;strokeColor=none;fillColor=none;align=left;verticalAlign=top;spacingLeft=4;spacingRight=4;overflow=hidden;rotatable=0;points=[[0,0.5],[1,0.5]];portConstraint=eastwest;" vertex="1" parent="FH3-HNGUuqk2ekZMtS2C-17">
          <mxGeometry y="242" width="330" height="26" as="geometry" />
        </mxCell>
        <mxCell id="FH3-HNGUuqk2ekZMtS2C-28" value="+ updateConsultation(): void" style="text;strokeColor=none;fillColor=none;align=left;verticalAlign=top;spacingLeft=4;spacingRight=4;overflow=hidden;rotatable=0;points=[[0,0.5],[1,0.5]];portConstraint=eastwest;" vertex="1" parent="FH3-HNGUuqk2ekZMtS2C-17">
          <mxGeometry y="268" width="330" height="26" as="geometry" />
        </mxCell>
        <mxCell id="FH3-HNGUuqk2ekZMtS2C-29" value="+ getAvailability(LocalDateTime): boolean" style="text;strokeColor=none;fillColor=none;align=left;verticalAlign=top;spacingLeft=4;spacingRight=4;overflow=hidden;rotatable=0;points=[[0,0.5],[1,0.5]];portConstraint=eastwest;" vertex="1" parent="FH3-HNGUuqk2ekZMtS2C-17">
          <mxGeometry y="294" width="330" height="26" as="geometry" />
        </mxCell>
        <mxCell id="FH3-HNGUuqk2ekZMtS2C-30" value="+ getMedicaLicenceNo(): String" style="text;strokeColor=none;fillColor=none;align=left;verticalAlign=top;spacingLeft=4;spacingRight=4;overflow=hidden;rotatable=0;points=[[0,0.5],[1,0.5]];portConstraint=eastwest;" vertex="1" parent="FH3-HNGUuqk2ekZMtS2C-17">
          <mxGeometry y="320" width="330" height="26" as="geometry" />
        </mxCell>
        <mxCell id="FH3-HNGUuqk2ekZMtS2C-31" value="+ setMedicalLicenceNo(String): void" style="text;strokeColor=none;fillColor=none;align=left;verticalAlign=top;spacingLeft=4;spacingRight=4;overflow=hidden;rotatable=0;points=[[0,0.5],[1,0.5]];portConstraint=eastwest;" vertex="1" parent="FH3-HNGUuqk2ekZMtS2C-17">
          <mxGeometry y="346" width="330" height="26" as="geometry" />
        </mxCell>
        <mxCell id="FH3-HNGUuqk2ekZMtS2C-32" value="+ getSpecilisation(): String" style="text;strokeColor=none;fillColor=none;align=left;verticalAlign=top;spacingLeft=4;spacingRight=4;overflow=hidden;rotatable=0;points=[[0,0.5],[1,0.5]];portConstraint=eastwest;" vertex="1" parent="FH3-HNGUuqk2ekZMtS2C-17">
          <mxGeometry y="372" width="330" height="26" as="geometry" />
        </mxCell>
        <mxCell id="FH3-HNGUuqk2ekZMtS2C-33" value="+ setSpecilisation(String): void" style="text;strokeColor=none;fillColor=none;align=left;verticalAlign=top;spacingLeft=4;spacingRight=4;overflow=hidden;rotatable=0;points=[[0,0.5],[1,0.5]];portConstraint=eastwest;" vertex="1" parent="FH3-HNGUuqk2ekZMtS2C-17">
          <mxGeometry y="398" width="330" height="26" as="geometry" />
        </mxCell>
        <mxCell id="FH3-HNGUuqk2ekZMtS2C-34" value="+ getConsultations(): TreeSet&lt;Consultation&gt;" style="text;strokeColor=none;fillColor=none;align=left;verticalAlign=top;spacingLeft=4;spacingRight=4;overflow=hidden;rotatable=0;points=[[0,0.5],[1,0.5]];portConstraint=eastwest;" vertex="1" parent="FH3-HNGUuqk2ekZMtS2C-17">
          <mxGeometry y="424" width="330" height="26" as="geometry" />
        </mxCell>
        <mxCell id="FH3-HNGUuqk2ekZMtS2C-35" value="+ getSpecilisation(): String" style="text;strokeColor=none;fillColor=none;align=left;verticalAlign=top;spacingLeft=4;spacingRight=4;overflow=hidden;rotatable=0;points=[[0,0.5],[1,0.5]];portConstraint=eastwest;" vertex="1" parent="FH3-HNGUuqk2ekZMtS2C-17">
          <mxGeometry y="450" width="330" height="26" as="geometry" />
        </mxCell>
        <mxCell id="FH3-HNGUuqk2ekZMtS2C-36" value="Consultation" style="swimlane;fontStyle=1;align=center;verticalAlign=top;childLayout=stackLayout;horizontal=1;startSize=26;horizontalStack=0;resizeParent=1;resizeParentMax=0;resizeLast=0;collapsible=1;marginBottom=0;" vertex="1" parent="FH3-HNGUuqk2ekZMtS2C-1">
          <mxGeometry x="1130" y="910" width="290" height="658" as="geometry">
            <mxRectangle x="440" y="538" width="110" height="30" as="alternateBounds" />
          </mxGeometry>
        </mxCell>
        <mxCell id="FH3-HNGUuqk2ekZMtS2C-37" value="+ tableColumns: String[]" style="text;strokeColor=none;fillColor=none;align=left;verticalAlign=top;spacingLeft=4;spacingRight=4;overflow=hidden;rotatable=0;points=[[0,0.5],[1,0.5]];portConstraint=eastwest;fontStyle=4" vertex="1" parent="FH3-HNGUuqk2ekZMtS2C-36">
          <mxGeometry y="26" width="290" height="26" as="geometry" />
        </mxCell>
        <mxCell id="FH3-HNGUuqk2ekZMtS2C-38" value="+ tableFieldNames: String[]" style="text;strokeColor=none;fillColor=none;align=left;verticalAlign=top;spacingLeft=4;spacingRight=4;overflow=hidden;rotatable=0;points=[[0,0.5],[1,0.5]];portConstraint=eastwest;fontStyle=4" vertex="1" parent="FH3-HNGUuqk2ekZMtS2C-36">
          <mxGeometry y="52" width="290" height="26" as="geometry" />
        </mxCell>
        <mxCell id="FH3-HNGUuqk2ekZMtS2C-39" value="- consultationUID: String" style="text;strokeColor=none;fillColor=none;align=left;verticalAlign=top;spacingLeft=4;spacingRight=4;overflow=hidden;rotatable=0;points=[[0,0.5],[1,0.5]];portConstraint=eastwest;" vertex="1" parent="FH3-HNGUuqk2ekZMtS2C-36">
          <mxGeometry y="78" width="290" height="26" as="geometry" />
        </mxCell>
        <mxCell id="FH3-HNGUuqk2ekZMtS2C-40" value="- consultationDateTime: LocalDateTime" style="text;strokeColor=none;fillColor=none;align=left;verticalAlign=top;spacingLeft=4;spacingRight=4;overflow=hidden;rotatable=0;points=[[0,0.5],[1,0.5]];portConstraint=eastwest;" vertex="1" parent="FH3-HNGUuqk2ekZMtS2C-36">
          <mxGeometry y="104" width="290" height="26" as="geometry" />
        </mxCell>
        <mxCell id="FH3-HNGUuqk2ekZMtS2C-41" value="- cost: float" style="text;strokeColor=none;fillColor=none;align=left;verticalAlign=top;spacingLeft=4;spacingRight=4;overflow=hidden;rotatable=0;points=[[0,0.5],[1,0.5]];portConstraint=eastwest;" vertex="1" parent="FH3-HNGUuqk2ekZMtS2C-36">
          <mxGeometry y="130" width="290" height="26" as="geometry" />
        </mxCell>
        <mxCell id="FH3-HNGUuqk2ekZMtS2C-42" value="- textsNotes: File" style="text;strokeColor=none;fillColor=none;align=left;verticalAlign=top;spacingLeft=4;spacingRight=4;overflow=hidden;rotatable=0;points=[[0,0.5],[1,0.5]];portConstraint=eastwest;" vertex="1" parent="FH3-HNGUuqk2ekZMtS2C-36">
          <mxGeometry y="156" width="290" height="26" as="geometry" />
        </mxCell>
        <mxCell id="FH3-HNGUuqk2ekZMtS2C-43" value="- noteImages: ArrayList&lt;File&gt;" style="text;strokeColor=none;fillColor=none;align=left;verticalAlign=top;spacingLeft=4;spacingRight=4;overflow=hidden;rotatable=0;points=[[0,0.5],[1,0.5]];portConstraint=eastwest;" vertex="1" parent="FH3-HNGUuqk2ekZMtS2C-36">
          <mxGeometry y="182" width="290" height="26" as="geometry" />
        </mxCell>
        <mxCell id="FH3-HNGUuqk2ekZMtS2C-44" value="- patient: Patient" style="text;strokeColor=none;fillColor=none;align=left;verticalAlign=top;spacingLeft=4;spacingRight=4;overflow=hidden;rotatable=0;points=[[0,0.5],[1,0.5]];portConstraint=eastwest;" vertex="1" parent="FH3-HNGUuqk2ekZMtS2C-36">
          <mxGeometry y="208" width="290" height="26" as="geometry" />
        </mxCell>
        <mxCell id="FH3-HNGUuqk2ekZMtS2C-45" value="- doctor: Doctor" style="text;strokeColor=none;fillColor=none;align=left;verticalAlign=top;spacingLeft=4;spacingRight=4;overflow=hidden;rotatable=0;points=[[0,0.5],[1,0.5]];portConstraint=eastwest;" vertex="1" parent="FH3-HNGUuqk2ekZMtS2C-36">
          <mxGeometry y="234" width="290" height="26" as="geometry" />
        </mxCell>
        <mxCell id="FH3-HNGUuqk2ekZMtS2C-46" value="- encryptKey: SecreteKey" style="text;strokeColor=none;fillColor=none;align=left;verticalAlign=top;spacingLeft=4;spacingRight=4;overflow=hidden;rotatable=0;points=[[0,0.5],[1,0.5]];portConstraint=eastwest;" vertex="1" parent="FH3-HNGUuqk2ekZMtS2C-36">
          <mxGeometry y="260" width="290" height="26" as="geometry" />
        </mxCell>
        <mxCell id="FH3-HNGUuqk2ekZMtS2C-47" value="" style="line;strokeWidth=1;fillColor=none;align=left;verticalAlign=middle;spacingTop=-1;spacingLeft=3;spacingRight=3;rotatable=0;labelPosition=right;points=[];portConstraint=eastwest;strokeColor=inherit;" vertex="1" parent="FH3-HNGUuqk2ekZMtS2C-36">
          <mxGeometry y="286" width="290" height="8" as="geometry" />
        </mxCell>
        <mxCell id="FH3-HNGUuqk2ekZMtS2C-48" value="+ validateConsultation(): boolean" style="text;strokeColor=none;fillColor=none;align=left;verticalAlign=top;spacingLeft=4;spacingRight=4;overflow=hidden;rotatable=0;points=[[0,0.5],[1,0.5]];portConstraint=eastwest;" vertex="1" parent="FH3-HNGUuqk2ekZMtS2C-36">
          <mxGeometry y="294" width="290" height="26" as="geometry" />
        </mxCell>
        <mxCell id="FH3-HNGUuqk2ekZMtS2C-49" value="+ updateConsultation(): void" style="text;strokeColor=none;fillColor=none;align=left;verticalAlign=top;spacingLeft=4;spacingRight=4;overflow=hidden;rotatable=0;points=[[0,0.5],[1,0.5]];portConstraint=eastwest;" vertex="1" parent="FH3-HNGUuqk2ekZMtS2C-36">
          <mxGeometry y="320" width="290" height="26" as="geometry" />
        </mxCell>
        <mxCell id="FH3-HNGUuqk2ekZMtS2C-50" value="+ clearAssets(): void" style="text;strokeColor=none;fillColor=none;align=left;verticalAlign=top;spacingLeft=4;spacingRight=4;overflow=hidden;rotatable=0;points=[[0,0.5],[1,0.5]];portConstraint=eastwest;" vertex="1" parent="FH3-HNGUuqk2ekZMtS2C-36">
          <mxGeometry y="346" width="290" height="26" as="geometry" />
        </mxCell>
        <mxCell id="FH3-HNGUuqk2ekZMtS2C-51" value="+ getEncryptKey(): SecreteKey" style="text;strokeColor=none;fillColor=none;align=left;verticalAlign=top;spacingLeft=4;spacingRight=4;overflow=hidden;rotatable=0;points=[[0,0.5],[1,0.5]];portConstraint=eastwest;" vertex="1" parent="FH3-HNGUuqk2ekZMtS2C-36">
          <mxGeometry y="372" width="290" height="26" as="geometry" />
        </mxCell>
        <mxCell id="FH3-HNGUuqk2ekZMtS2C-52" value="+ getNoteImages(): ArrayList&lt;File&gt;" style="text;strokeColor=none;fillColor=none;align=left;verticalAlign=top;spacingLeft=4;spacingRight=4;overflow=hidden;rotatable=0;points=[[0,0.5],[1,0.5]];portConstraint=eastwest;" vertex="1" parent="FH3-HNGUuqk2ekZMtS2C-36">
          <mxGeometry y="398" width="290" height="26" as="geometry" />
        </mxCell>
        <mxCell id="FH3-HNGUuqk2ekZMtS2C-53" value="+ getNoteImageBytes(): List&lt;byte[]&gt;" style="text;strokeColor=none;fillColor=none;align=left;verticalAlign=top;spacingLeft=4;spacingRight=4;overflow=hidden;rotatable=0;points=[[0,0.5],[1,0.5]];portConstraint=eastwest;" vertex="1" parent="FH3-HNGUuqk2ekZMtS2C-36">
          <mxGeometry y="424" width="290" height="26" as="geometry" />
        </mxCell>
        <mxCell id="FH3-HNGUuqk2ekZMtS2C-54" value="+ setNoteImages(ArrayList&lt;File&gt; noteImages): void" style="text;strokeColor=none;fillColor=none;align=left;verticalAlign=top;spacingLeft=4;spacingRight=4;overflow=hidden;rotatable=0;points=[[0,0.5],[1,0.5]];portConstraint=eastwest;" vertex="1" parent="FH3-HNGUuqk2ekZMtS2C-36">
          <mxGeometry y="450" width="290" height="26" as="geometry" />
        </mxCell>
        <mxCell id="FH3-HNGUuqk2ekZMtS2C-55" value="+ deleteUnusedAssets(ArrayList&lt;File&gt;): void" style="text;strokeColor=none;fillColor=none;align=left;verticalAlign=top;spacingLeft=4;spacingRight=4;overflow=hidden;rotatable=0;points=[[0,0.5],[1,0.5]];portConstraint=eastwest;" vertex="1" parent="FH3-HNGUuqk2ekZMtS2C-36">
          <mxGeometry y="476" width="290" height="26" as="geometry" />
        </mxCell>
        <mxCell id="FH3-HNGUuqk2ekZMtS2C-56" value="+ getCost(): float" style="text;strokeColor=none;fillColor=none;align=left;verticalAlign=top;spacingLeft=4;spacingRight=4;overflow=hidden;rotatable=0;points=[[0,0.5],[1,0.5]];portConstraint=eastwest;" vertex="1" parent="FH3-HNGUuqk2ekZMtS2C-36">
          <mxGeometry y="502" width="290" height="26" as="geometry" />
        </mxCell>
        <mxCell id="FH3-HNGUuqk2ekZMtS2C-57" value="+ setCost(float): void" style="text;strokeColor=none;fillColor=none;align=left;verticalAlign=top;spacingLeft=4;spacingRight=4;overflow=hidden;rotatable=0;points=[[0,0.5],[1,0.5]];portConstraint=eastwest;" vertex="1" parent="FH3-HNGUuqk2ekZMtS2C-36">
          <mxGeometry y="528" width="290" height="26" as="geometry" />
        </mxCell>
        <mxCell id="FH3-HNGUuqk2ekZMtS2C-58" value="+ getHourlyCost(): double" style="text;strokeColor=none;fillColor=none;align=left;verticalAlign=top;spacingLeft=4;spacingRight=4;overflow=hidden;rotatable=0;points=[[0,0.5],[1,0.5]];portConstraint=eastwest;" vertex="1" parent="FH3-HNGUuqk2ekZMtS2C-36">
          <mxGeometry y="554" width="290" height="26" as="geometry" />
        </mxCell>
        <mxCell id="FH3-HNGUuqk2ekZMtS2C-59" value="+ getPatient(): Patient" style="text;strokeColor=none;fillColor=none;align=left;verticalAlign=top;spacingLeft=4;spacingRight=4;overflow=hidden;rotatable=0;points=[[0,0.5],[1,0.5]];portConstraint=eastwest;" vertex="1" parent="FH3-HNGUuqk2ekZMtS2C-36">
          <mxGeometry y="580" width="290" height="26" as="geometry" />
        </mxCell>
        <mxCell id="FH3-HNGUuqk2ekZMtS2C-60" value="+ getDoctorName(): String" style="text;strokeColor=none;fillColor=none;align=left;verticalAlign=top;spacingLeft=4;spacingRight=4;overflow=hidden;rotatable=0;points=[[0,0.5],[1,0.5]];portConstraint=eastwest;" vertex="1" parent="FH3-HNGUuqk2ekZMtS2C-36">
          <mxGeometry y="606" width="290" height="26" as="geometry" />
        </mxCell>
        <mxCell id="FH3-HNGUuqk2ekZMtS2C-61" value="+ getConsultationUID(): String" style="text;strokeColor=none;fillColor=none;align=left;verticalAlign=top;spacingLeft=4;spacingRight=4;overflow=hidden;rotatable=0;points=[[0,0.5],[1,0.5]];portConstraint=eastwest;" vertex="1" parent="FH3-HNGUuqk2ekZMtS2C-36">
          <mxGeometry y="632" width="290" height="26" as="geometry" />
        </mxCell>
        <mxCell id="FH3-HNGUuqk2ekZMtS2C-62" value="main.WestminsterSkinConsultationManager" style="swimlane;fontStyle=1;align=center;verticalAlign=top;childLayout=stackLayout;horizontal=1;startSize=26;horizontalStack=0;resizeParent=1;resizeParentMax=0;resizeLast=0;collapsible=1;marginBottom=0;" vertex="1" parent="FH3-HNGUuqk2ekZMtS2C-1">
          <mxGeometry x="1120" y="270" width="310" height="502" as="geometry" />
        </mxCell>
        <mxCell id="FH3-HNGUuqk2ekZMtS2C-63" value="- doctors: ArrayList&lt;Doctor&gt;" style="text;strokeColor=none;fillColor=none;align=left;verticalAlign=top;spacingLeft=4;spacingRight=4;overflow=hidden;rotatable=0;points=[[0,0.5],[1,0.5]];portConstraint=eastwest;" vertex="1" parent="FH3-HNGUuqk2ekZMtS2C-62">
          <mxGeometry y="26" width="310" height="26" as="geometry" />
        </mxCell>
        <mxCell id="FH3-HNGUuqk2ekZMtS2C-64" value="- consultations: ArrayList&lt;Consultation&gt;" style="text;strokeColor=none;fillColor=none;align=left;verticalAlign=top;spacingLeft=4;spacingRight=4;overflow=hidden;rotatable=0;points=[[0,0.5],[1,0.5]];portConstraint=eastwest;" vertex="1" parent="FH3-HNGUuqk2ekZMtS2C-62">
          <mxGeometry y="52" width="310" height="26" as="geometry" />
        </mxCell>
        <mxCell id="FH3-HNGUuqk2ekZMtS2C-65" value="- patients: ArrayList&lt;Patients&gt;" style="text;strokeColor=none;fillColor=none;align=left;verticalAlign=top;spacingLeft=4;spacingRight=4;overflow=hidden;rotatable=0;points=[[0,0.5],[1,0.5]];portConstraint=eastwest;" vertex="1" parent="FH3-HNGUuqk2ekZMtS2C-62">
          <mxGeometry y="78" width="310" height="26" as="geometry" />
        </mxCell>
        <mxCell id="FH3-HNGUuqk2ekZMtS2C-66" value="- consultationIdIndex: int" style="text;strokeColor=none;fillColor=none;align=left;verticalAlign=top;spacingLeft=4;spacingRight=4;overflow=hidden;rotatable=0;points=[[0,0.5],[1,0.5]];portConstraint=eastwest;" vertex="1" parent="FH3-HNGUuqk2ekZMtS2C-62">
          <mxGeometry y="104" width="310" height="26" as="geometry" />
        </mxCell>
        <mxCell id="FH3-HNGUuqk2ekZMtS2C-67" value="" style="line;strokeWidth=1;fillColor=none;align=left;verticalAlign=middle;spacingTop=-1;spacingLeft=3;spacingRight=3;rotatable=0;labelPosition=right;points=[];portConstraint=eastwest;strokeColor=inherit;" vertex="1" parent="FH3-HNGUuqk2ekZMtS2C-62">
          <mxGeometry y="130" width="310" height="8" as="geometry" />
        </mxCell>
        <mxCell id="FH3-HNGUuqk2ekZMtS2C-68" value="- printMainMenu(): void" style="text;strokeColor=none;fillColor=none;align=left;verticalAlign=top;spacingLeft=4;spacingRight=4;overflow=hidden;rotatable=0;points=[[0,0.5],[1,0.5]];portConstraint=eastwest;" vertex="1" parent="FH3-HNGUuqk2ekZMtS2C-62">
          <mxGeometry y="138" width="310" height="26" as="geometry" />
        </mxCell>
        <mxCell id="FH3-HNGUuqk2ekZMtS2C-69" value="- promptPerson(): String[]" style="text;strokeColor=none;fillColor=none;align=left;verticalAlign=top;spacingLeft=4;spacingRight=4;overflow=hidden;rotatable=0;points=[[0,0.5],[1,0.5]];portConstraint=eastwest;" vertex="1" parent="FH3-HNGUuqk2ekZMtS2C-62">
          <mxGeometry y="164" width="310" height="26" as="geometry" />
        </mxCell>
        <mxCell id="FH3-HNGUuqk2ekZMtS2C-70" value="+ mainMenuInputHandler(String): boolean" style="text;strokeColor=none;fillColor=none;align=left;verticalAlign=top;spacingLeft=4;spacingRight=4;overflow=hidden;rotatable=0;points=[[0,0.5],[1,0.5]];portConstraint=eastwest;" vertex="1" parent="FH3-HNGUuqk2ekZMtS2C-62">
          <mxGeometry y="190" width="310" height="26" as="geometry" />
        </mxCell>
        <mxCell id="FH3-HNGUuqk2ekZMtS2C-71" value="+ findDoctor(): String[]" style="text;strokeColor=none;fillColor=none;align=left;verticalAlign=top;spacingLeft=4;spacingRight=4;overflow=hidden;rotatable=0;points=[[0,0.5],[1,0.5]];portConstraint=eastwest;" vertex="1" parent="FH3-HNGUuqk2ekZMtS2C-62">
          <mxGeometry y="216" width="310" height="26" as="geometry" />
        </mxCell>
        <mxCell id="FH3-HNGUuqk2ekZMtS2C-72" value="+ getAvailableDoctor(String, LocalDateTime): String[]" style="text;strokeColor=none;fillColor=none;align=left;verticalAlign=top;spacingLeft=4;spacingRight=4;overflow=hidden;rotatable=0;points=[[0,0.5],[1,0.5]];portConstraint=eastwest;" vertex="1" parent="FH3-HNGUuqk2ekZMtS2C-62">
          <mxGeometry y="242" width="310" height="26" as="geometry" />
        </mxCell>
        <mxCell id="FH3-HNGUuqk2ekZMtS2C-73" value="+ getDoctors(): ArrayList&lt;Doctor&gt;" style="text;strokeColor=none;fillColor=none;align=left;verticalAlign=top;spacingLeft=4;spacingRight=4;overflow=hidden;rotatable=0;points=[[0,0.5],[1,0.5]];portConstraint=eastwest;" vertex="1" parent="FH3-HNGUuqk2ekZMtS2C-62">
          <mxGeometry y="268" width="310" height="26" as="geometry" />
        </mxCell>
        <mxCell id="FH3-HNGUuqk2ekZMtS2C-74" value="+ setDoctor(ArrayList&lt;Doctor&gt;): void" style="text;strokeColor=none;fillColor=none;align=left;verticalAlign=top;spacingLeft=4;spacingRight=4;overflow=hidden;rotatable=0;points=[[0,0.5],[1,0.5]];portConstraint=eastwest;" vertex="1" parent="FH3-HNGUuqk2ekZMtS2C-62">
          <mxGeometry y="294" width="310" height="26" as="geometry" />
        </mxCell>
        <mxCell id="FH3-HNGUuqk2ekZMtS2C-75" value="+ getConsultations(): ArrayList&lt;Consultations&gt;" style="text;strokeColor=none;fillColor=none;align=left;verticalAlign=top;spacingLeft=4;spacingRight=4;overflow=hidden;rotatable=0;points=[[0,0.5],[1,0.5]];portConstraint=eastwest;" vertex="1" parent="FH3-HNGUuqk2ekZMtS2C-62">
          <mxGeometry y="320" width="310" height="26" as="geometry" />
        </mxCell>
        <mxCell id="FH3-HNGUuqk2ekZMtS2C-76" value="+ setConsultations(ArrayList&lt;Consultation&gt;): void" style="text;strokeColor=none;fillColor=none;align=left;verticalAlign=top;spacingLeft=4;spacingRight=4;overflow=hidden;rotatable=0;points=[[0,0.5],[1,0.5]];portConstraint=eastwest;" vertex="1" parent="FH3-HNGUuqk2ekZMtS2C-62">
          <mxGeometry y="346" width="310" height="26" as="geometry" />
        </mxCell>
        <mxCell id="FH3-HNGUuqk2ekZMtS2C-77" value="+ getPatients(): ArrayList&lt;Patients&gt;" style="text;strokeColor=none;fillColor=none;align=left;verticalAlign=top;spacingLeft=4;spacingRight=4;overflow=hidden;rotatable=0;points=[[0,0.5],[1,0.5]];portConstraint=eastwest;" vertex="1" parent="FH3-HNGUuqk2ekZMtS2C-62">
          <mxGeometry y="372" width="310" height="26" as="geometry" />
        </mxCell>
        <mxCell id="FH3-HNGUuqk2ekZMtS2C-78" value="+ setPatients(): void" style="text;strokeColor=none;fillColor=none;align=left;verticalAlign=top;spacingLeft=4;spacingRight=4;overflow=hidden;rotatable=0;points=[[0,0.5],[1,0.5]];portConstraint=eastwest;" vertex="1" parent="FH3-HNGUuqk2ekZMtS2C-62">
          <mxGeometry y="398" width="310" height="26" as="geometry" />
        </mxCell>
        <mxCell id="FH3-HNGUuqk2ekZMtS2C-79" value="+ getConsultationIdIndex(): int" style="text;strokeColor=none;fillColor=none;align=left;verticalAlign=top;spacingLeft=4;spacingRight=4;overflow=hidden;rotatable=0;points=[[0,0.5],[1,0.5]];portConstraint=eastwest;" vertex="1" parent="FH3-HNGUuqk2ekZMtS2C-62">
          <mxGeometry y="424" width="310" height="26" as="geometry" />
        </mxCell>
        <mxCell id="FH3-HNGUuqk2ekZMtS2C-80" value="+ start(): void" style="text;strokeColor=none;fillColor=none;align=left;verticalAlign=top;spacingLeft=4;spacingRight=4;overflow=hidden;rotatable=0;points=[[0,0.5],[1,0.5]];portConstraint=eastwest;" vertex="1" parent="FH3-HNGUuqk2ekZMtS2C-62">
          <mxGeometry y="450" width="310" height="26" as="geometry" />
        </mxCell>
        <mxCell id="FH3-HNGUuqk2ekZMtS2C-81" value="+ main(): void" style="text;strokeColor=none;fillColor=none;align=left;verticalAlign=top;spacingLeft=4;spacingRight=4;overflow=hidden;rotatable=0;points=[[0,0.5],[1,0.5]];portConstraint=eastwest;fontStyle=4" vertex="1" parent="FH3-HNGUuqk2ekZMtS2C-62">
          <mxGeometry y="476" width="310" height="26" as="geometry" />
        </mxCell>
        <mxCell id="FH3-HNGUuqk2ekZMtS2C-82" value="&lt;&lt;interface&gt;&gt;&#xa;main.SkinConsultationManager" style="swimlane;fontStyle=1;align=center;verticalAlign=top;childLayout=stackLayout;horizontal=1;startSize=40;horizontalStack=0;resizeParent=1;resizeParentMax=0;resizeLast=0;collapsible=1;marginBottom=0;" vertex="1" parent="FH3-HNGUuqk2ekZMtS2C-1">
          <mxGeometry x="1165" y="10" width="220" height="196" as="geometry" />
        </mxCell>
        <mxCell id="FH3-HNGUuqk2ekZMtS2C-83" value="+ addDoctor(): void" style="text;strokeColor=none;fillColor=none;align=left;verticalAlign=top;spacingLeft=4;spacingRight=4;overflow=hidden;rotatable=0;points=[[0,0.5],[1,0.5]];portConstraint=eastwest;" vertex="1" parent="FH3-HNGUuqk2ekZMtS2C-82">
          <mxGeometry y="40" width="220" height="26" as="geometry" />
        </mxCell>
        <mxCell id="FH3-HNGUuqk2ekZMtS2C-84" value="+ removeDoctor(): void" style="text;strokeColor=none;fillColor=none;align=left;verticalAlign=top;spacingLeft=4;spacingRight=4;overflow=hidden;rotatable=0;points=[[0,0.5],[1,0.5]];portConstraint=eastwest;" vertex="1" parent="FH3-HNGUuqk2ekZMtS2C-82">
          <mxGeometry y="66" width="220" height="26" as="geometry" />
        </mxCell>
        <mxCell id="FH3-HNGUuqk2ekZMtS2C-85" value="+ viewDoctors(): void" style="text;strokeColor=none;fillColor=none;align=left;verticalAlign=top;spacingLeft=4;spacingRight=4;overflow=hidden;rotatable=0;points=[[0,0.5],[1,0.5]];portConstraint=eastwest;" vertex="1" parent="FH3-HNGUuqk2ekZMtS2C-82">
          <mxGeometry y="92" width="220" height="26" as="geometry" />
        </mxCell>
        <mxCell id="FH3-HNGUuqk2ekZMtS2C-86" value="+ addConsultation(): void" style="text;strokeColor=none;fillColor=none;align=left;verticalAlign=top;spacingLeft=4;spacingRight=4;overflow=hidden;rotatable=0;points=[[0,0.5],[1,0.5]];portConstraint=eastwest;" vertex="1" parent="FH3-HNGUuqk2ekZMtS2C-82">
          <mxGeometry y="118" width="220" height="26" as="geometry" />
        </mxCell>
        <mxCell id="FH3-HNGUuqk2ekZMtS2C-87" value="+ updateConsultation(): void" style="text;strokeColor=none;fillColor=none;align=left;verticalAlign=top;spacingLeft=4;spacingRight=4;overflow=hidden;rotatable=0;points=[[0,0.5],[1,0.5]];portConstraint=eastwest;" vertex="1" parent="FH3-HNGUuqk2ekZMtS2C-82">
          <mxGeometry y="144" width="220" height="26" as="geometry" />
        </mxCell>
        <mxCell id="FH3-HNGUuqk2ekZMtS2C-88" value="+ cancelConsultation(): void" style="text;strokeColor=none;fillColor=none;align=left;verticalAlign=top;spacingLeft=4;spacingRight=4;overflow=hidden;rotatable=0;points=[[0,0.5],[1,0.5]];portConstraint=eastwest;" vertex="1" parent="FH3-HNGUuqk2ekZMtS2C-82">
          <mxGeometry y="170" width="220" height="26" as="geometry" />
        </mxCell>
        <mxCell id="FH3-HNGUuqk2ekZMtS2C-89" value="Patient" style="swimlane;fontStyle=1;align=center;verticalAlign=top;childLayout=stackLayout;horizontal=1;startSize=26;horizontalStack=0;resizeParent=1;resizeParentMax=0;resizeLast=0;collapsible=1;marginBottom=0;" vertex="1" parent="FH3-HNGUuqk2ekZMtS2C-1">
          <mxGeometry x="545" y="870" width="340" height="164" as="geometry">
            <mxRectangle x="440" y="538" width="110" height="30" as="alternateBounds" />
          </mxGeometry>
        </mxCell>
        <mxCell id="FH3-HNGUuqk2ekZMtS2C-90" value="+ tableColumns: String[]" style="text;strokeColor=none;fillColor=none;align=left;verticalAlign=top;spacingLeft=4;spacingRight=4;overflow=hidden;rotatable=0;points=[[0,0.5],[1,0.5]];portConstraint=eastwest;fontStyle=4" vertex="1" parent="FH3-HNGUuqk2ekZMtS2C-89">
          <mxGeometry y="26" width="340" height="26" as="geometry" />
        </mxCell>
        <mxCell id="FH3-HNGUuqk2ekZMtS2C-91" value="+ tableFieldNames: String[]" style="text;strokeColor=none;fillColor=none;align=left;verticalAlign=top;spacingLeft=4;spacingRight=4;overflow=hidden;rotatable=0;points=[[0,0.5],[1,0.5]];portConstraint=eastwest;fontStyle=4" vertex="1" parent="FH3-HNGUuqk2ekZMtS2C-89">
          <mxGeometry y="52" width="340" height="26" as="geometry" />
        </mxCell>
        <mxCell id="FH3-HNGUuqk2ekZMtS2C-92" value="- UID: String" style="text;strokeColor=none;fillColor=none;align=left;verticalAlign=top;spacingLeft=4;spacingRight=4;overflow=hidden;rotatable=0;points=[[0,0.5],[1,0.5]];portConstraint=eastwest;" vertex="1" parent="FH3-HNGUuqk2ekZMtS2C-89">
          <mxGeometry y="78" width="340" height="26" as="geometry" />
        </mxCell>
        <mxCell id="FH3-HNGUuqk2ekZMtS2C-93" value="" style="line;strokeWidth=1;fillColor=none;align=left;verticalAlign=middle;spacingTop=-1;spacingLeft=3;spacingRight=3;rotatable=0;labelPosition=right;points=[];portConstraint=eastwest;strokeColor=inherit;" vertex="1" parent="FH3-HNGUuqk2ekZMtS2C-89">
          <mxGeometry y="104" width="340" height="8" as="geometry" />
        </mxCell>
        <mxCell id="FH3-HNGUuqk2ekZMtS2C-94" value="+ getUID(): String" style="text;strokeColor=none;fillColor=none;align=left;verticalAlign=top;spacingLeft=4;spacingRight=4;overflow=hidden;rotatable=0;points=[[0,0.5],[1,0.5]];portConstraint=eastwest;" vertex="1" parent="FH3-HNGUuqk2ekZMtS2C-89">
          <mxGeometry y="112" width="340" height="26" as="geometry" />
        </mxCell>
        <mxCell id="FH3-HNGUuqk2ekZMtS2C-95" value="+ generateUID(): String" style="text;strokeColor=none;fillColor=none;align=left;verticalAlign=top;spacingLeft=4;spacingRight=4;overflow=hidden;rotatable=0;points=[[0,0.5],[1,0.5]];portConstraint=eastwest;" vertex="1" parent="FH3-HNGUuqk2ekZMtS2C-89">
          <mxGeometry y="138" width="340" height="26" as="geometry" />
        </mxCell>
        <mxCell id="FH3-HNGUuqk2ekZMtS2C-96" value="Extends" style="endArrow=block;endSize=16;endFill=0;html=1;rounded=0;dashed=1;" edge="1" parent="FH3-HNGUuqk2ekZMtS2C-1" target="FH3-HNGUuqk2ekZMtS2C-2">
          <mxGeometry width="160" relative="1" as="geometry">
            <mxPoint x="550" y="400" as="sourcePoint" />
            <mxPoint x="710" y="400" as="targetPoint" />
          </mxGeometry>
        </mxCell>
        <mxCell id="FH3-HNGUuqk2ekZMtS2C-97" value="Extends" style="endArrow=block;endSize=16;endFill=0;html=1;rounded=0;dashed=1;exitX=0;exitY=0.5;exitDx=0;exitDy=0;entryX=1.046;entryY=0.01;entryDx=0;entryDy=0;entryPerimeter=0;" edge="1" parent="FH3-HNGUuqk2ekZMtS2C-1" source="FH3-HNGUuqk2ekZMtS2C-92" target="FH3-HNGUuqk2ekZMtS2C-12">
          <mxGeometry width="160" relative="1" as="geometry">
            <mxPoint x="550" y="295.11" as="sourcePoint" />
            <mxPoint x="310.0000000000002" y="270.0023076923077" as="targetPoint" />
          </mxGeometry>
        </mxCell>
        <mxCell id="FH3-HNGUuqk2ekZMtS2C-98" value="" style="endArrow=block;dashed=1;endFill=0;endSize=12;html=1;rounded=0;exitX=0.5;exitY=0;exitDx=0;exitDy=0;" edge="1" parent="FH3-HNGUuqk2ekZMtS2C-1" source="FH3-HNGUuqk2ekZMtS2C-62" target="FH3-HNGUuqk2ekZMtS2C-82">
          <mxGeometry width="160" relative="1" as="geometry">
            <mxPoint x="1110" y="260" as="sourcePoint" />
            <mxPoint x="1270" y="260" as="targetPoint" />
          </mxGeometry>
        </mxCell>
        <mxCell id="FH3-HNGUuqk2ekZMtS2C-99" value="" style="endArrow=diamondThin;endFill=0;endSize=24;html=1;rounded=0;exitX=1;exitY=0.5;exitDx=0;exitDy=0;entryX=0;entryY=0.5;entryDx=0;entryDy=0;" edge="1" parent="FH3-HNGUuqk2ekZMtS2C-1" source="FH3-HNGUuqk2ekZMtS2C-18" target="FH3-HNGUuqk2ekZMtS2C-63">
          <mxGeometry width="160" relative="1" as="geometry">
            <mxPoint x="884" y="585" as="sourcePoint" />
            <mxPoint x="1044" y="585" as="targetPoint" />
          </mxGeometry>
        </mxCell>
        <mxCell id="FH3-HNGUuqk2ekZMtS2C-100" value="" style="endArrow=diamondThin;endFill=0;endSize=24;html=1;rounded=0;exitX=0.5;exitY=0;exitDx=0;exitDy=0;entryX=0.469;entryY=1.126;entryDx=0;entryDy=0;entryPerimeter=0;" edge="1" parent="FH3-HNGUuqk2ekZMtS2C-1" source="FH3-HNGUuqk2ekZMtS2C-36" target="FH3-HNGUuqk2ekZMtS2C-81">
          <mxGeometry width="160" relative="1" as="geometry">
            <mxPoint x="980.0000000000005" y="908.4499999999998" as="sourcePoint" />
            <mxPoint x="1217.3600000000001" y="522.0000000000005" as="targetPoint" />
          </mxGeometry>
        </mxCell>
        <mxCell id="FH3-HNGUuqk2ekZMtS2C-101" value="consults" style="endArrow=none;html=1;edgeStyle=orthogonalEdgeStyle;rounded=0;exitX=1;exitY=0.042;exitDx=0;exitDy=0;exitPerimeter=0;entryX=0;entryY=0.5;entryDx=0;entryDy=0;" edge="1" parent="FH3-HNGUuqk2ekZMtS2C-1" source="FH3-HNGUuqk2ekZMtS2C-31" target="FH3-HNGUuqk2ekZMtS2C-40">
          <mxGeometry relative="1" as="geometry">
            <mxPoint x="1030" y="580" as="sourcePoint" />
            <mxPoint x="1190" y="580" as="targetPoint" />
          </mxGeometry>
        </mxCell>
        <mxCell id="FH3-HNGUuqk2ekZMtS2C-102" value="1..1" style="edgeLabel;resizable=0;html=1;align=left;verticalAlign=bottom;" connectable="0" vertex="1" parent="FH3-HNGUuqk2ekZMtS2C-101">
          <mxGeometry x="-1" relative="1" as="geometry" />
        </mxCell>
        <mxCell id="FH3-HNGUuqk2ekZMtS2C-103" value="0...*" style="edgeLabel;resizable=0;html=1;align=right;verticalAlign=bottom;" connectable="0" vertex="1" parent="FH3-HNGUuqk2ekZMtS2C-101">
          <mxGeometry x="1" relative="1" as="geometry" />
        </mxCell>
        <mxCell id="FH3-HNGUuqk2ekZMtS2C-104" value="0..10" style="text;html=1;strokeColor=none;fillColor=none;align=center;verticalAlign=middle;whiteSpace=wrap;rounded=0;" vertex="1" parent="FH3-HNGUuqk2ekZMtS2C-1">
          <mxGeometry x="880" y="320" width="60" height="30" as="geometry" />
        </mxCell>
        <mxCell id="FH3-HNGUuqk2ekZMtS2C-105" value="0..1" style="text;html=1;strokeColor=none;fillColor=none;align=center;verticalAlign=middle;whiteSpace=wrap;rounded=0;" vertex="1" parent="FH3-HNGUuqk2ekZMtS2C-1">
          <mxGeometry x="1060" y="280" width="60" height="30" as="geometry" />
        </mxCell>
        <mxCell id="FH3-HNGUuqk2ekZMtS2C-106" value="books" style="endArrow=none;html=1;edgeStyle=orthogonalEdgeStyle;rounded=0;exitX=1;exitY=0.5;exitDx=0;exitDy=0;entryX=0;entryY=0.5;entryDx=0;entryDy=0;" edge="1" parent="FH3-HNGUuqk2ekZMtS2C-1" source="FH3-HNGUuqk2ekZMtS2C-90" target="FH3-HNGUuqk2ekZMtS2C-46">
          <mxGeometry relative="1" as="geometry">
            <mxPoint x="870" y="950.0020000000002" as="sourcePoint" />
            <mxPoint x="1120" y="1309.91" as="targetPoint" />
            <Array as="points">
              <mxPoint x="980" y="909" />
              <mxPoint x="980" y="1183" />
            </Array>
          </mxGeometry>
        </mxCell>
        <mxCell id="FH3-HNGUuqk2ekZMtS2C-107" value="1..1" style="edgeLabel;resizable=0;html=1;align=left;verticalAlign=bottom;" connectable="0" vertex="1" parent="FH3-HNGUuqk2ekZMtS2C-106">
          <mxGeometry x="-1" relative="1" as="geometry" />
        </mxCell>
        <mxCell id="FH3-HNGUuqk2ekZMtS2C-108" value="0...*" style="edgeLabel;resizable=0;html=1;align=right;verticalAlign=bottom;" connectable="0" vertex="1" parent="FH3-HNGUuqk2ekZMtS2C-106">
          <mxGeometry x="1" relative="1" as="geometry" />
        </mxCell>
        <mxCell id="FH3-HNGUuqk2ekZMtS2C-109" value="Text" style="edgeLabel;html=1;align=center;verticalAlign=middle;resizable=0;points=[];" vertex="1" connectable="0" parent="FH3-HNGUuqk2ekZMtS2C-106">
          <mxGeometry x="0.7156" y="3" relative="1" as="geometry">
            <mxPoint x="-1" as="offset" />
          </mxGeometry>
        </mxCell>
      </root>
    </mxGraphModel>
  </diagram>
</mxfile>
